<svg version="1.1" xmlns="http://www.w3.org/2000/svg" viewBox="0 0 112.3968080322752 79.25730300170875" width="112.3968080322752" height="79.25730300170875">
  <!-- svg-source:excalidraw -->
  
  <defs>
    <style class="style-fonts">
      @font-face {
        font-family: "Virgil";
        src: url("https://excalidraw.com/Virgil.woff2");
      }
      @font-face {
        font-family: "Cascadia";
        src: url("https://excalidraw.com/Cascadia.woff2");
      }
    </style>
  </defs>
  <g stroke-linecap="round"><g transform="translate(10.707788751998692 11.242199102877237) rotate(0 43.15101672129833 26.88112544476388)" fill-rule="evenodd"><path d="M0 0 C0 0, 0 0, 0 0 M0 0 C0 0, 0 0, 0 0 M0.44 4.99 C2.34 4.22, 3.24 2.04, 4.38 0.89 M0.28 5.75 C1.54 3.75, 3.3 2.22, 5.02 0.22 M-0.48 13.64 C2.58 6.73, 8.14 2.56, 11.38 -0.38 M-0.44 11.46 C2.35 9.25, 6.6 4.66, 11.27 -0.64 M2.26 16.88 C2.7 15.13, 7.76 10.57, 14.08 0.1 M0.56 18.41 C4 13.37, 7.2 9.92, 15.43 -0.12 M1.96 24.46 C7.12 18.26, 12.52 9.56, 19.35 2.38 M0.06 23.69 C5.49 18.05, 10.94 10.77, 21.4 0.26 M-1.22 30.99 C11.28 17.68, 18.72 11.19, 22.91 3.59 M1.22 28.73 C5.33 23.28, 13.03 15.82, 23.31 4.14 M1.13 35.87 C6.77 26.48, 15.42 18.33, 24.97 7.63 M1.43 36.09 C7.95 27.85, 13.13 20.65, 26.3 6.85 M2.68 41.17 C8 34.71, 14.44 22.9, 29.08 10.43 M1.01 42.66 C8.32 33.56, 15.56 23.31, 29.94 9.4 M1.52 47.24 C10.68 37.32, 16.31 27.93, 36.52 7.46 M1.11 47.98 C9.69 37.32, 16.65 29.34, 34.45 9.76 M3.41 53 C15.7 38.09, 32.9 19.46, 39.01 9.9 M0.67 52.35 C8.17 43.26, 15.95 36.1, 40.06 9.84 M3.56 56.51 C17.09 44.73, 25.15 31.45, 47.05 9.35 M4.92 56.16 C16.06 41.81, 29.23 28.06, 45.07 7.93 M10.56 54.55 C24.09 37.51, 38.59 21.27, 51.2 8.69 M9.01 55.25 C20.34 43.83, 29.4 33.6, 49.9 8.38 M14.91 57.67 C25.42 43.81, 38.51 30.82, 54.56 7.86 M15.3 56.77 C27.21 43.28, 39.26 29.86, 55.22 9.16 M18.79 58 C35.28 40.85, 48.67 23.73, 60.65 7.72 M20.81 56.74 C30.13 43.79, 40.61 34.03, 60.61 8.48 M25.3 56.06 C37.47 41.21, 52.14 25.56, 65.9 7.79 M25.21 55.65 C35.38 43.53, 47.1 30.26, 66.73 8.36 M30.94 54.56 C44.8 40.68, 57.97 22.81, 71.56 10.17 M30.98 56.06 C44.51 40.21, 58.85 25.66, 71.96 9.24 M37.54 58.25 C53.64 39.19, 68.04 19.35, 76.13 9.23 M36.1 57.2 C49.94 40.76, 64.37 22.9, 76.57 9.55 M40.7 55.68 C55.51 40.34, 71.14 23.72, 83.33 7.52 M42.18 56.54 C52.51 44.16, 62.54 32.04, 81.38 8.35 M46.35 54.33 C56 43.85, 67.04 32.36, 87.18 8.79 M47.75 55.67 C62.18 38.01, 78.23 20.15, 88.53 8.1 M51.97 54.12 C60.89 45.67, 66.01 39.99, 88.03 14.83 M51.2 55.61 C62.9 43.81, 72.86 31.92, 88.33 14.39 M57.67 54.97 C64.02 45.44, 74.82 38.04, 88.07 21.46 M58.58 55.18 C68.01 44.44, 77.09 33.99, 88.38 21.57 M60.87 53.9 C71.26 47.07, 76.48 39.75, 88.18 27.64 M61.98 55.83 C70.59 47.57, 77.76 39.88, 89.2 26.78 M66.65 56.81 C74.88 46.06, 80.33 42.43, 87.01 30.84 M68.64 56.22 C72.17 49.72, 77.33 45.44, 89 32.98 M73.74 56.32 C78.83 50.3, 84.97 43.18, 86.78 39.49 M72.62 55.85 C77.16 52.54, 81.05 46.82, 88.23 38.27 M80.38 55.52 C81.38 53.38, 85.58 47.97, 87.54 43.48 M79.68 55.56 C81.02 52.55, 83.03 49.78, 87.53 45.33" stroke="#38ABAB" stroke-width="0.5" fill="none"></path><path d="M1.26 1.63 C1.25 19.31, 2.54 38.73, -0.71 53.17 M0.63 0.15 C1.02 18.46, 1.65 39.72, 1.18 53.14 M-0.48 52.64 C30.62 53.38, 61.54 52.27, 87.68 52.54 M0.48 53.6 C30.15 53.45, 60.27 54.05, 86.58 53.38 M85.6 54.72 C87.51 40.07, 85.67 29, 84.85 8.4 M86.4 52.96 C86.05 40.11, 86.39 25.39, 85.65 5.96 M84.46 7.74 C68.59 5.65, 46.65 8.04, 26.13 6.69 M87 6.11 C64.2 6.77, 40.36 7.52, 25.63 5.79 M26.53 6.31 C25.71 4.97, 23.53 3.44, 20.62 1.01 M26.28 6.38 C24.92 4.86, 23.72 3.54, 21.37 0.69 M19.55 -1.24 C12.46 -1.23, 8.91 0.31, 0.99 -0.49 M20.21 0.79 C14.75 0.54, 5.83 -0.13, 0.5 -0.17 M0 0 C0 0, 0 0, 0 0 M0 0 C0 0, 0 0, 0 0" stroke="black" stroke-width="1" fill="none"></path></g></g><mask></mask><g stroke-linecap="round"><g transform="translate(17.916025322473956 64.99156092774689) rotate(0 41.3613962110922 -18.42618366336623)"><path d="M0.27 0.17 C0.13 1.19, 0.27 1.44, -0.1 3.52 M0.03 0.12 C-0.14 1.05, 0.16 1.78, -0.1 3.43 M-1.13 1.63 C22.65 2.15, 45.22 5.23, 82.16 3.96 M-0.16 2.52 C17.4 3.53, 36.4 4.1, 82.99 2.37 M84.33 3.9 C80.84 -8.2, 80.89 -18.99, 84.48 -40.22 M82.57 2.39 C83.48 -7.1, 82.58 -17.34, 82.05 -39.88 M82.89 -39.87 C81.72 -40.14, 81.23 -40.07, 79.67 -39.57 M82.64 -40.05 C81.94 -40.08, 81.3 -40.12, 79.53 -39.86 M79.66 -39.83 C79.66 -39.83, 79.66 -39.83, 79.66 -39.83 M79.66 -39.83 C79.66 -39.83, 79.66 -39.83, 79.66 -39.83" stroke="black" stroke-width="1" fill="none"></path></g></g><mask></mask></svg>