<svg xmlns="http://www.w3.org/2000/svg" xmlns:svg="http://www.w3.org/2000/svg" version="1.1" id="svg1332" xml:space="preserve" width="682.66669" height="682.66669" viewBox="0 0 682.66669 682.66669"><defs id="defs1336"><clipPath clipPathUnits="userSpaceOnUse" id="clipPath1346"><path d="M 0,512 H 512 V 0 H 0 Z" id="path1344"/></clipPath></defs><g id="g1338" transform="matrix(1.3333333,0,0,-1.3333333,0,682.66667)"><g id="g1340"><g id="g1342" clip-path="url(#clipPath1346)"><g id="g1348" transform="translate(301.0027,335.8701)"><path d="m 0,0 h 190.997 c 5.523,0 10,-4.477 10,-10 v -139.74 c 0,-5.523 -4.477,-10 -10,-10 h -472 c -5.522,0 -10,4.477 -10,10 V -10 c 0,5.523 4.478,10 10,10 h 190.998" style="fill:none;stroke:#000000;stroke-width:20;stroke-linecap:round;stroke-linejoin:round;stroke-miterlimit:10;stroke-dasharray:none;stroke-opacity:1" id="path1350"/></g><g id="g1352" transform="translate(266.0003,335.8701)"><path d="m 0,0 c 0,-5.523 -4.477,-10 -10,-10 -5.523,0 -10,4.477 -10,10 0,5.523 4.477,10 10,10 C -4.477,10 0,5.523 0,0" style="fill:#000000;fill-opacity:1;fill-rule:nonzero;stroke:none" id="path1354"/></g><g id="g1356" transform="translate(405.0909,375.8701)"><path d="M 0,0 V -239.74" style="fill:none;stroke:#000000;stroke-width:20;stroke-linecap:round;stroke-linejoin:round;stroke-miterlimit:10;stroke-dasharray:none;stroke-opacity:1" id="path1358"/></g><g id="g1360" transform="translate(374.7516,375.8701)"><path d="M 0,0 H 60.679" style="fill:none;stroke:#000000;stroke-width:20;stroke-linecap:round;stroke-linejoin:round;stroke-miterlimit:10;stroke-dasharray:none;stroke-opacity:1" id="path1362"/></g><g id="g1364" transform="translate(374.7516,136.1299)"><path d="M 0,0 H 60.679" style="fill:none;stroke:#000000;stroke-width:20;stroke-linecap:round;stroke-linejoin:round;stroke-miterlimit:10;stroke-dasharray:none;stroke-opacity:1" id="path1366"/></g><g id="g1368" transform="translate(67.6221,219.2705)"><path d="m 0,0 27.584,72.424 c 0.563,1.378 2.514,1.38 3.081,0.004 L 57.998,0" style="fill:none;stroke:#000000;stroke-width:20;stroke-linecap:round;stroke-linejoin:round;stroke-miterlimit:10;stroke-dasharray:none;stroke-opacity:1" id="path1370"/></g><g id="g1372" transform="translate(76.2247,237.308)"><path d="M 0,0 H 40.931" style="fill:none;stroke:#000000;stroke-width:20;stroke-linecap:round;stroke-linejoin:round;stroke-miterlimit:10;stroke-dasharray:none;stroke-opacity:1" id="path1374"/></g><g id="g1376" transform="translate(222.4322,275.8265)"><path d="m 0,0 c 0,-9.335 -7.568,-16.903 -16.903,-16.903 -4.63,0 -21.338,-0.075 -21.338,-0.075 V 0 16.903 h 21.338 C -7.568,16.903 0,9.335 0,0 Z" style="fill:none;stroke:#000000;stroke-width:20;stroke-linecap:round;stroke-linejoin:round;stroke-miterlimit:10;stroke-dasharray:none;stroke-opacity:1" id="path1378"/></g><g id="g1380" transform="translate(229.0285,239.1307)"><path d="m 0,0 c 0,-10.92 -8.853,-19.773 -19.773,-19.773 -5.416,0 -25.064,-0.087 -25.064,-0.087 V 0 19.773 h 25.064 C -8.853,19.773 0,10.92 0,0 Z" style="fill:none;stroke:#000000;stroke-width:20;stroke-linecap:round;stroke-linejoin:round;stroke-miterlimit:10;stroke-dasharray:none;stroke-opacity:1" id="path1382"/></g><g id="g1384" transform="translate(344.8653,286.4567)"><path d="m 0,0 c -5.862,3.96 -12.929,6.273 -20.536,6.273 -20.285,0 -36.729,-16.445 -36.729,-36.73 0,-20.285 16.444,-36.729 36.729,-36.729 8.239,0 15.015,2.712 20.158,7.293 1.064,0.948 2.059,1.975 2.982,3.076" style="fill:none;stroke:#000000;stroke-width:20;stroke-linecap:round;stroke-linejoin:round;stroke-miterlimit:10;stroke-dasharray:none;stroke-opacity:1" id="path1386"/></g></g></g></g></svg>