<svg xmlns="http://www.w3.org/2000/svg" xmlns:xlink="http://www.w3.org/1999/xlink" xmlns:svgjs="http://svgjs.com/svgjs" version="1.1" width="512" height="512" x="0" y="0" viewBox="0 0 64 64" style="enable-background:new 0 0 512 512" xml:space="preserve" class=""><g><circle cx="32" cy="32" r="31" fill="#99dede" data-original="#64a0fa" class=""/><path fill="#38abab" d="M52.363 8.637A30.99 30.99 0 0 1 8.637 52.363 30.992 30.992 0 1 0 52.363 8.637z" data-original="#4492f4" class=""/><g fill="#50ec72"><path d="M28.786 30H21l-3-3-9 5v5.536l3.071 1.107 1.108 4.428 4.428 1.108 1.107 3.321L15 53l1.926 6.088a30.833 30.833 0 0 0 4.003 1.868L23 55l5.679-2v-4L33 47l4-5v-4.464L33 36zM63 32a30.87 30.87 0 0 0-3.106-13.536l-5.751 2.465L45 19l-3.036-4.714h-3.321L32 18l1 7 6 5 6-2 3 4-2 4v7.071L50 45v5l4.63 3.177A30.883 30.883 0 0 0 63 32zM2.165 23.588 7 24.25l2.857 3.321L14 27v-3l-2-1v-3h5l6-3.5 1.25-5.5H29V7l-6-1-2.28-2.874A31.062 31.062 0 0 0 2.165 23.588zM44.302 3.542 37 5l-1 4 6 1 3-1 3.607 3.071h7.132a31.082 31.082 0 0 0-11.437-8.529z" fill="#af9178" data-original="#50ec72" class=""/></g><path fill="#cecdcc" d="M52 18a4.282 4.282 0 0 0-3.562 6.656L52 30l3.562-5.344A4.282 4.282 0 0 0 52 18z" data-original="#f03a5a" class=""/><circle cx="52" cy="22" r="1" fill="#646261" data-original="#f2f7ff" class=""/><path fill="#cecdcc" d="M25 35a4.282 4.282 0 0 0-3.562 6.656L25 47l3.562-5.344A4.282 4.282 0 0 0 25 35z" data-original="#f03a5a" class=""/><circle cx="25" cy="39" r="1" fill="#646261" data-original="#f2f7ff" class=""/><path fill="#cecdcc" d="M12 3a4.282 4.282 0 0 0-3.562 6.656L12 15l3.562-5.344A4.282 4.282 0 0 0 12 3z" data-original="#f03a5a" class=""/><circle cx="12" cy="7" r="1" fill="#646261" data-original="#f2f7ff" class=""/><path fill="#755941" d="m16.363 57.306.563 1.782a30.846 30.846 0 0 0 4.003 1.868l.646-1.858a30.754 30.754 0 0 1-5.212-1.792zM59.894 18.464l-1.514.649a30.983 30.983 0 0 1-7.293 31.633l3.542 2.43a31 31 0 0 0 5.265-34.712z" data-original="#5ac263" class=""/></g></svg>