<svg xmlns="http://www.w3.org/2000/svg" xmlns:xlink="http://www.w3.org/1999/xlink" xmlns:svgjs="http://svgjs.com/svgjs" version="1.1" width="512px" height="512px" x="0" y="0" viewBox="0 0 520 520" style="enable-background:new 0 0 512 512" xml:space="preserve" class=""><g><g id="_35-Checked" data-name="35-Checked"><path d="m213.245 414.76-4.378-7.457c-32.838-55.947-120.186-174.797-121.067-175.991l-2.562-3.482 32.862-32.463 94.036 65.663c58.937-76.169 113.841-128.59 149.758-159.311 39.678-33.94 64.8-49.127 65.845-49.757l1.188-.713h57.9l-9.805 8.733c-123.822 110.286-258.155 344.907-259.498 347.264z" fill="#38abab" data-original="#009045" class=""/></g><g id="_13-Cancel" fill="#828282" data-name="13-Cancel"><ellipse cx="41.176" cy="122.687" rx="7.995" ry="7.991" fill="#000000" data-original="#828282" class=""/><ellipse cx="72.364" cy="122.687" rx="7.995" ry="7.991" fill="#000000" data-original="#828282" class=""/><ellipse cx="103.551" cy="122.687" rx="7.995" ry="7.991" fill="#000000" data-original="#828282" class=""/><ellipse cx="134.739" cy="122.687" rx="7.995" ry="7.991" fill="#000000" data-original="#828282" class=""/><ellipse cx="165.927" cy="122.687" rx="7.995" ry="7.991" fill="#000000" data-original="#828282" class=""/><ellipse cx="197.115" cy="122.687" rx="7.995" ry="7.991" fill="#000000" data-original="#828282" class=""/><ellipse cx="228.302" cy="122.687" rx="7.995" ry="7.991" fill="#000000" data-original="#828282" class=""/><ellipse cx="259.49" cy="122.687" rx="7.995" ry="7.991" fill="#000000" data-original="#828282" class=""/><ellipse cx="290.678" cy="122.687" rx="7.995" ry="7.991" fill="#000000" data-original="#828282" class=""/><ellipse cx="41.176" cy="465.76" rx="7.995" ry="7.991" fill="#000000" data-original="#828282" class=""/><ellipse cx="72.364" cy="465.76" rx="7.995" ry="7.991" fill="#000000" data-original="#828282" class=""/><ellipse cx="103.551" cy="465.76" rx="7.995" ry="7.991" fill="#000000" data-original="#828282" class=""/><ellipse cx="134.739" cy="465.76" rx="7.995" ry="7.991" fill="#000000" data-original="#828282" class=""/><ellipse cx="165.927" cy="465.76" rx="7.995" ry="7.991" fill="#000000" data-original="#828282" class=""/><ellipse cx="197.115" cy="465.76" rx="7.995" ry="7.991" fill="#000000" data-original="#828282" class=""/><ellipse cx="228.302" cy="465.76" rx="7.995" ry="7.991" fill="#000000" data-original="#828282" class=""/><ellipse cx="259.49" cy="465.76" rx="7.995" ry="7.991" fill="#000000" data-original="#828282" class=""/><ellipse cx="290.678" cy="465.76" rx="7.995" ry="7.991" fill="#000000" data-original="#828282" class=""/><ellipse cx="321.865" cy="465.76" rx="7.995" ry="7.991" fill="#000000" data-original="#828282" class=""/><ellipse cx="353.053" cy="465.76" rx="7.995" ry="7.991" fill="#000000" data-original="#828282" class=""/><ellipse cx="384.241" cy="465.76" rx="7.995" ry="7.991" fill="#000000" data-original="#828282" class=""/><ellipse cx="41.172" cy="434.568" rx="7.991" ry="7.995" fill="#000000" data-original="#828282" class=""/><ellipse cx="41.172" cy="403.38" rx="7.991" ry="7.995" fill="#000000" data-original="#828282" class=""/><ellipse cx="41.172" cy="372.193" rx="7.991" ry="7.995" fill="#000000" data-original="#828282" class=""/><ellipse cx="41.172" cy="341.005" rx="7.991" ry="7.995" fill="#000000" data-original="#828282" class=""/><ellipse cx="41.172" cy="309.817" rx="7.991" ry="7.995" fill="#000000" data-original="#828282" class=""/><ellipse cx="41.172" cy="278.629" rx="7.991" ry="7.995" fill="#000000" data-original="#828282" class=""/><ellipse cx="41.172" cy="247.442" rx="7.991" ry="7.995" fill="#000000" data-original="#828282" class=""/><ellipse cx="41.172" cy="216.254" rx="7.991" ry="7.995" fill="#000000" data-original="#828282" class=""/><ellipse cx="41.172" cy="185.066" rx="7.991" ry="7.995" fill="#000000" data-original="#828282" class=""/><ellipse cx="41.172" cy="153.879" rx="7.991" ry="7.995" fill="#000000" data-original="#828282" class=""/><ellipse cx="384.245" cy="434.568" rx="7.991" ry="7.995" fill="#000000" data-original="#828282" class=""/><ellipse cx="384.245" cy="403.38" rx="7.991" ry="7.995" fill="#000000" data-original="#828282" class=""/><ellipse cx="384.245" cy="372.193" rx="7.991" ry="7.995" fill="#000000" data-original="#828282" class=""/><ellipse cx="384.245" cy="341.005" rx="7.991" ry="7.995" fill="#000000" data-original="#828282" class=""/><ellipse cx="384.245" cy="309.817" rx="7.991" ry="7.995" fill="#000000" data-original="#828282" class=""/><ellipse cx="384.245" cy="278.629" rx="7.991" ry="7.995" fill="#000000" data-original="#828282" class=""/><ellipse cx="384.245" cy="247.442" rx="7.991" ry="7.995" fill="#000000" data-original="#828282" class=""/><ellipse cx="384.245" cy="216.254" rx="7.991" ry="7.995" fill="#000000" data-original="#828282" class=""/></g></g></svg>