<svg version="1.1" xmlns="http://www.w3.org/2000/svg" viewBox="0 0 380.87792619793504 322.0848741144303" width="380.87792619793504" height="322.0848741144303">
  <!-- svg-source:excalidraw -->
  
  <defs>
    <style class="style-fonts">
      @font-face {
        font-family: "Virgil";
        src: url("https://excalidraw.com/Virgil.woff2");
      }
      @font-face {
        font-family: "Cascadia";
        src: url("https://excalidraw.com/Cascadia.woff2");
      }
    </style>
  </defs>
  <g stroke-linecap="round"><g transform="translate(291.8616491491373 119.10835010240892) rotate(0 32.814449302019646 32.943640047303184)"><path d="M0.64 0.01 C11.65 10.97, 55.67 54.3, 66.68 65.39 M-0.49 -1.03 C10.4 10.13, 55.12 55.73, 66.28 66.66" stroke="#755941" stroke-width="1" fill="none"></path></g></g><mask></mask><g stroke-linecap="round"><g transform="translate(273.9339234912151 293.712841965842) rotate(0 -29.713871415214577 -74.6722507738873)"><path d="M1.05 -0.5 C-8.78 -25.28, -48.2 -123.86, -58.36 -148.67 M0.14 -1.81 C-9.81 -26.93, -48.56 -126.06, -58.75 -150.44" stroke="#755941" stroke-width="1" fill="none"></path></g></g><mask></mask><g stroke-linecap="round"><g transform="translate(95.73155001212328 192.4929912010742) rotate(0 54.64768525493817 -25.19219533029063)"><path d="M1.07 0.67 C19.02 -7.65, 90.59 -41.91, 108.78 -50.42 M0.17 -0.02 C17.83 -8.09, 89.26 -40.72, 107.57 -48.9" stroke="#755941" stroke-width="1" fill="none"></path></g></g><mask></mask><g stroke-linecap="round"><g transform="translate(284.9616298899002 39.629979614272756) rotate(0 -34.23554750013868 44.18323488697135)"><path d="M-0.51 -0.03 C-11.94 14.58, -56.09 73.78, -67.52 88.36 M1.42 -1.1 C-10.18 13.66, -56.04 75, -67.97 89.9" stroke="#755941" stroke-width="1" fill="none"></path></g></g><mask></mask><g stroke-linecap="round"><g transform="translate(96.20509453361655 115.88754107242802) rotate(0 42.762136688852465 -42.891327434135874)"><path d="M0.95 -0.01 C15.19 -14.45, 70.64 -72.2, 84.93 -86.69 M-0.01 -1.05 C14.68 -15.37, 72.9 -71.44, 87.33 -85.63" stroke="#755941" stroke-width="1" fill="none"></path></g></g><mask></mask><g stroke-linecap="round" transform="translate(67.57496791368928 186.01316253844828) rotate(0 15.226052122702981 15.226052122702981)"><path d="M22.92 2.71 C25.88 3.91, 28 7.07, 29.03 9.99 C30.06 12.9, 29.97 17.11, 29.13 20.2 C28.28 23.3, 26.72 26.95, 23.97 28.56 C21.21 30.17, 16.05 30.53, 12.61 29.88 C9.16 29.23, 5.31 26.84, 3.29 24.63 C1.27 22.43, 0.51 19.7, 0.49 16.64 C0.48 13.58, 1.41 9.13, 3.22 6.27 C5.03 3.42, 7.99 0.15, 11.36 -0.49 C14.72 -1.13, 21.25 1.92, 23.41 2.44 C25.56 2.96, 24.44 2.33, 24.28 2.62 M14.5 0.41 C17.33 -0.14, 21.54 0.71, 24.27 2.66 C26.99 4.61, 30.32 8.91, 30.87 12.11 C31.42 15.31, 29.03 18.8, 27.56 21.86 C26.09 24.93, 24.81 29.19, 22.05 30.48 C19.29 31.78, 14.23 30.96, 10.98 29.64 C7.73 28.32, 4.21 25.42, 2.55 22.55 C0.89 19.69, 0.56 15.7, 1.02 12.44 C1.48 9.18, 2.75 5.14, 5.32 2.99 C7.88 0.85, 14.98 0.06, 16.4 -0.43 C17.83 -0.93, 14.11 -0.39, 13.87 0.01" stroke="#006666" stroke-width="1" fill="none"></path></g><g stroke-linecap="round" transform="translate(276.47640303717634 10) rotate(0 15.226052122702985 15.226052122702985)"><path d="M21.92 2.27 C24.55 3.41, 27.23 6.73, 28.64 9.72 C30.04 12.71, 31.3 17.24, 30.33 20.21 C29.37 23.19, 25.8 26.04, 22.85 27.58 C19.89 29.12, 15.66 29.66, 12.61 29.45 C9.56 29.24, 6.62 28.52, 4.54 26.33 C2.45 24.13, 0.43 19.82, 0.09 16.29 C-0.25 12.77, 0.49 7.77, 2.52 5.18 C4.55 2.58, 8.79 1.27, 12.28 0.7 C15.78 0.13, 21.65 1.34, 23.49 1.78 C25.33 2.21, 23.57 2.93, 23.31 3.3 M20.16 0.28 C23.31 1.11, 27.75 4.79, 29.25 7.64 C30.76 10.5, 29.71 13.99, 29.19 17.4 C28.68 20.82, 28.42 25.94, 26.17 28.11 C23.91 30.29, 19.09 30.79, 15.66 30.47 C12.23 30.15, 8.04 28.41, 5.6 26.2 C3.15 23.98, 1.57 20.45, 1.01 17.19 C0.46 13.93, 0.47 9.43, 2.26 6.62 C4.04 3.82, 8.83 1.36, 11.72 0.38 C14.61 -0.6, 18.13 0.5, 19.6 0.73 C21.07 0.96, 20.64 1.47, 20.55 1.75" stroke="#006666" stroke-width="1" fill="none"></path></g><g stroke-linecap="round" transform="translate(202.17326867838534 126.93608030236051) rotate(0 9.135631273621755 9.135631273621755)"><path d="M12.88 1.51 C14.7 2.28, 17.48 4.6, 18.19 6.28 C18.91 7.96, 18 9.97, 17.16 11.6 C16.33 13.22, 14.67 14.82, 13.19 16.04 C11.71 17.27, 10.07 19.01, 8.26 18.92 C6.46 18.83, 3.84 17.23, 2.36 15.5 C0.89 13.77, -0.58 10.48, -0.57 8.52 C-0.56 6.57, 0.98 5.19, 2.42 3.77 C3.87 2.34, 5.86 0.04, 8.1 0 C10.34 -0.05, 14.39 2.54, 15.87 3.47 C17.36 4.41, 17.04 5.7, 17.01 5.62 M11.07 -0.15 C12.86 -0.01, 13.51 0.58, 14.93 2.24 C16.36 3.9, 19.29 7.73, 19.65 9.82 C20.01 11.91, 18.45 13.47, 17.09 14.76 C15.72 16.05, 13.35 17.23, 11.45 17.57 C9.55 17.92, 7.49 17.78, 5.7 16.83 C3.92 15.88, 1.38 13.68, 0.74 11.85 C0.1 10.03, 1.45 7.69, 1.86 5.9 C2.26 4.11, 1.75 2.01, 3.16 1.11 C4.57 0.21, 9.31 0.67, 10.32 0.53 C11.34 0.39, 9.31 0.1, 9.25 0.25" stroke="#006666" stroke-width="1" fill="none"></path></g><g stroke-linecap="round" transform="translate(266.7317296786459 293.8136115671868) rotate(0 9.135631273621753 9.135631273621755)"><path d="M12.35 0.89 C14.16 1.17, 15.3 2.29, 16.15 3.7 C17.01 5.11, 17.54 7.21, 17.49 9.35 C17.44 11.49, 17.16 15.02, 15.86 16.56 C14.56 18.09, 11.83 18.73, 9.7 18.57 C7.58 18.41, 4.59 16.77, 3.08 15.59 C1.58 14.42, 0.89 13.32, 0.67 11.53 C0.45 9.73, 0.92 6.49, 1.77 4.82 C2.62 3.15, 3.92 2.04, 5.79 1.5 C7.67 0.96, 11.52 1.6, 13.04 1.58 C14.56 1.57, 14.91 1.44, 14.9 1.4 M5.91 -0.48 C7.8 -0.84, 12.44 0.96, 14.49 1.94 C16.54 2.92, 17.56 3.88, 18.2 5.41 C18.84 6.94, 18.83 9.3, 18.31 11.12 C17.8 12.94, 16.78 15.24, 15.11 16.3 C13.44 17.37, 10.13 17.7, 8.29 17.5 C6.44 17.29, 5.57 16.4, 4.01 15.07 C2.45 13.75, -0.7 11.33, -1.09 9.52 C-1.48 7.72, 0.52 5.79, 1.67 4.24 C2.81 2.7, 4.96 0.83, 5.78 0.26 C6.61 -0.31, 6.19 0.6, 6.62 0.84" stroke="#006666" stroke-width="1" fill="none"></path></g><g stroke-linecap="round" transform="translate(352.60666365069153 183.5769941988156) rotate(0 9.135631273621755 9.135631273621755)"><path d="M10.31 -0.26 C11.94 -0.24, 14.16 0.83, 15.56 2.56 C16.97 4.29, 18.67 7.96, 18.75 10.11 C18.83 12.27, 17.53 14.29, 16.06 15.49 C14.59 16.69, 11.8 17.03, 9.93 17.32 C8.05 17.61, 6.25 18.16, 4.81 17.25 C3.36 16.34, 1.91 13.64, 1.26 11.86 C0.6 10.08, 0.3 8.24, 0.88 6.57 C1.46 4.89, 2.81 2.89, 4.73 1.8 C6.66 0.72, 11.13 0.28, 12.45 0.05 C13.77 -0.18, 12.91 0.14, 12.66 0.42 M9.81 1.06 C11.94 0.93, 13.76 0.84, 15.18 1.73 C16.61 2.61, 17.86 4.53, 18.37 6.36 C18.87 8.19, 19.11 10.97, 18.21 12.69 C17.31 14.42, 14.67 15.92, 12.98 16.72 C11.3 17.52, 10.19 17.95, 8.11 17.5 C6.02 17.05, 1.84 15.48, 0.49 14.01 C-0.87 12.54, -0.2 10.6, -0.01 8.7 C0.18 6.8, 0.28 3.97, 1.63 2.59 C2.99 1.21, 6.77 0.72, 8.11 0.41 C9.45 0.11, 9.73 0.74, 9.67 0.75" stroke="#006666" stroke-width="1" fill="none"></path></g><g stroke-linecap="round" transform="translate(264.90460342392174 171.39615250065316) rotate(0 10.353715443438118 8.526589188713771)"><path d="M12.16 -0.62 C14.43 -0.11, 17.79 2.6, 19.22 4.28 C20.65 5.96, 21.09 7.9, 20.75 9.45 C20.42 11.01, 18.7 12.3, 17.22 13.61 C15.73 14.92, 13.83 17.03, 11.85 17.33 C9.87 17.63, 7.2 16.35, 5.33 15.4 C3.46 14.45, 1.38 13.24, 0.64 11.63 C-0.1 10.02, -0.12 7.58, 0.87 5.73 C1.86 3.88, 4.15 1.39, 6.57 0.53 C8.99 -0.33, 13.73 0.23, 15.38 0.58 C17.03 0.93, 16.6 2.56, 16.45 2.64 M8.48 0.3 C10.32 -0.5, 13.17 -0.39, 15.18 0.33 C17.2 1.05, 19.73 2.98, 20.6 4.6 C21.47 6.22, 20.89 8.31, 20.4 10.07 C19.91 11.82, 19.67 14, 17.65 15.11 C15.62 16.22, 10.71 16.75, 8.26 16.72 C5.81 16.7, 4.48 16.21, 2.92 14.96 C1.37 13.7, -0.85 11.02, -1.07 9.19 C-1.29 7.35, -0.07 5.36, 1.6 3.97 C3.28 2.57, 8.07 1.48, 8.98 0.82 C9.89 0.15, 7.45 0.16, 7.05 -0.02" stroke="#006666" stroke-width="1" fill="none"></path></g><g stroke-linecap="round" transform="translate(79.14676752694348 115.36428068910546) rotate(0 10.35371544343812 8.526589188713764)"><path d="M8.56 0.96 C10.72 0.67, 13.38 0.69, 15.18 1.27 C16.98 1.84, 18.42 2.7, 19.34 4.39 C20.25 6.08, 21.11 9.53, 20.67 11.39 C20.24 13.24, 18.62 14.46, 16.72 15.52 C14.83 16.58, 11.61 17.84, 9.28 17.75 C6.94 17.66, 4.13 16.52, 2.71 15 C1.29 13.47, 0.8 10.6, 0.75 8.6 C0.7 6.6, 1.11 4.33, 2.39 2.98 C3.67 1.64, 7.22 1.12, 8.43 0.54 C9.63 -0.03, 9.61 -0.68, 9.63 -0.46 M14.23 0 C16.28 0.42, 19.06 2.31, 20.12 3.84 C21.19 5.38, 20.9 7.44, 20.62 9.24 C20.35 11.03, 20.36 13.34, 18.47 14.59 C16.58 15.85, 11.75 16.6, 9.29 16.76 C6.83 16.92, 5.39 16.65, 3.68 15.53 C1.98 14.41, -0.5 11.84, -0.94 10.03 C-1.38 8.22, -0.44 6.18, 1.05 4.69 C2.54 3.19, 5.99 1.84, 7.99 1.07 C10 0.3, 12.37 0.34, 13.1 0.05 C13.83 -0.25, 12.3 -0.68, 12.38 -0.7" stroke="#006666" stroke-width="1" fill="none"></path></g><g stroke-linecap="round"><g transform="translate(22.919265646718998 145.95423271152228) rotate(0 2.4361683396325304 -30.432718808027776)"><path d="M-0.53 -0.86 C0.01 -10.78, 2.76 -50.3, 3.81 -60.29 M1.39 1.31 C2.24 -8.9, 5.29 -51.99, 5.97 -62.11" stroke="#006666" stroke-width="1" fill="none"></path></g></g><mask></mask><g stroke-linecap="round"><g transform="translate(33.79790009450818 69.69074305266356) rotate(0 22.091617443485546 -21.05809148121737)"><path d="M-1.06 0.58 C6.54 -6.29, 37.48 -34.8, 45.09 -42.03 M0.59 -0.17 C8.16 -6.74, 37.38 -33.5, 44.61 -40.45" stroke="#006666" stroke-width="1" fill="none"></path></g></g><mask></mask><g stroke-linecap="round"><g transform="translate(94.6756042079729 20.41200943403929) rotate(0 42.63294594356883 1.2919074528354066)"><path d="M0.9 0.09 C15.35 0.31, 71.75 1.4, 85.64 1.9 M-0.08 -0.91 C14.33 -0.6, 70.44 2.75, 84.89 3.08" stroke="#006666" stroke-width="1" fill="none"></path></g></g><mask></mask><g stroke-linecap="round"><g transform="translate(193.3042538574088 23.362610223645913) rotate(0 41.986992217151126 0.2583814905671389)"><path d="M0.38 -0.69 C14.05 -0.53, 68.96 0.68, 82.95 1.04 M-0.89 1.57 C13.07 1.36, 71.02 -0.48, 85.13 -0.81" stroke="#006666" stroke-width="1" fill="none"></path></g></g><mask></mask><g stroke-linecap="round"><g transform="translate(306.43991318291313 29.07840833655908) rotate(0 22.220808188769155 25.063004585007114)"><path d="M-1.02 0.52 C6.39 9.15, 37.29 42.75, 44.83 51.06 M0.65 -0.25 C7.9 8.11, 36.96 40.74, 44.08 49.44" stroke="#006666" stroke-width="1" fill="none"></path></g></g><mask></mask><g stroke-linecap="round"><g transform="translate(357.11627147693935 94.49732920915535) rotate(0 2.0670519245367274 44.441616377538416)"><path d="M0.38 0.94 C1.21 15.71, 3.13 74.53, 3.91 89.18 M-0.87 0.39 C-0.14 14.74, 1.9 72.25, 2.84 87.21" stroke="#006666" stroke-width="1" fill="none"></path></g></g><mask></mask><g stroke-linecap="round"><g transform="translate(358.16996670799995 200.35675003966713) rotate(0 -25.967339801991965 23.254334151037625)"><path d="M-0.22 0.3 C-8.79 7.88, -42.53 38.62, -51.01 46.47 M-1.8 -0.6 C-10.48 7.11, -43.21 40.3, -51.48 47.99" stroke="#006666" stroke-width="1" fill="none"></path></g></g><mask></mask><g stroke-linecap="round"><g transform="translate(290.82189505370025 267.4791854273907) rotate(0 -4.392485339640309 14.081791235906053)"><path d="M0.92 -0.04 C-0.37 4.75, -6.27 24.29, -7.96 29.05 M-0.05 -1.1 C-1.41 3.33, -6.79 22.21, -8.47 27.39" stroke="#006666" stroke-width="1" fill="none"></path></g></g><mask></mask><g stroke-linecap="round"><g transform="translate(268.97725540003523 296.98090072728036) rotate(0 -29.58468066993114 -38.88641433034613)"><path d="M0.83 0.89 C-9.25 -12.02, -49.48 -64.24, -59.56 -77.45 M-0.19 0.3 C-10.55 -12.97, -50.64 -66.45, -60.71 -79.4" stroke="#006666" stroke-width="1" fill="none"></path></g></g><mask></mask><g stroke-linecap="round"><g transform="translate(185.88010160891355 209.05940015545923) rotate(0 -43.6664719058372 -2.5838149056709057)"><path d="M-0.39 0.33 C-15.15 -0.78, -73.38 -4.82, -87.78 -5.76 M1.61 -0.55 C-13.43 -1.58, -74.15 -3.94, -88.96 -4.54" stroke="#006666" stroke-width="1" fill="none"></path></g></g><mask></mask><g stroke-linecap="round"><g transform="translate(68.69762797823807 196.8701973873017) rotate(0 -17.638198314609838 -12.042253730659397)"><path d="M-0.45 -0.6 C-3.28 -2.9, -11.47 -9.48, -17.4 -13.49 C-23.34 -17.51, -33.26 -23.07, -36.05 -24.69 M1.52 1.7 C-1.39 -0.44, -12.21 -7.82, -18.06 -12.05 C-23.91 -16.29, -30.41 -21.48, -33.57 -23.7" stroke="#006666" stroke-width="1" fill="none"></path></g></g><mask></mask><g stroke-linecap="round"><g transform="translate(37.9311400082762 154.19899391505115) rotate(0 20.928900735933766 -13.306646764204828)"><path d="M0.56 -0.19 C7.48 -4.62, 34.01 -22.96, 41.08 -27.22 M-0.61 -1.33 C6.73 -5.56, 36.15 -21.61, 43.39 -26.01" stroke="#38ABAB" stroke-width="1" fill="none"></path></g></g><mask></mask><g stroke-linecap="round"><g transform="translate(82.44399852819532 118.19961966009318) rotate(0 -22.995952660470294 -18.732658066113597)"><path d="M-0.78 -0.61 C-8.35 -6.69, -37.44 -30.5, -44.88 -36.64 M1.02 1.68 C-6.67 -4.71, -37.43 -32.03, -45.25 -38.33" stroke="#006666" stroke-width="1" fill="none"></path></g></g><mask></mask><g stroke-linecap="round"><g transform="translate(90.69725182452333 114.63913606881555) rotate(0 -1.8086704339694961 -41.599419981300464)"><path d="M1.11 0.83 C0.73 -12.94, -2.29 -69.11, -3.03 -83.18 M0.23 0.21 C-0.18 -13.29, -2.98 -67.85, -3.67 -81.63" stroke="#E6D2C1" stroke-width="1" fill="none"></path></g></g><mask></mask><g stroke-linecap="round"><g transform="translate(89.01574589753619 132.68859979150045) rotate(0 -0.38757223585065503 27.000865764260233)"><path d="M0.59 0.02 C0.33 8.82, -0.35 44.66, -0.47 53.61 M-0.56 -1.02 C-1.05 7.88, -1.26 45.62, -1.25 54.93" stroke="#006666" stroke-width="1" fill="none"></path></g></g><mask></mask><g stroke-linecap="round"><g transform="translate(99.50181222783925 119.73463430777839) rotate(0 33.97716600957165 -19.507802537814833)"><path d="M0.31 -0.4 C11.65 -6.95, 57.34 -32.79, 68.62 -39.32 M-0.99 -1.65 C10.2 -8.03, 56.64 -31.79, 68.02 -37.95" stroke="#AF9178" stroke-width="1" fill="none"></path></g></g><mask></mask><g stroke-linecap="round"><g transform="translate(92.65112827306825 26.121996592423724) rotate(0 38.11126985864492 18.861848811397117)"><path d="M0.66 -0.31 C13.32 5.95, 63.49 30.86, 76.27 37.14 M-0.45 -1.51 C12.03 4.93, 62.41 31.7, 75.35 38.37" stroke="#006666" stroke-width="1" fill="none"></path></g></g><mask></mask><g stroke-linecap="round"><g transform="translate(190.7355350516275 30.101037902747056) rotate(0 48.45063920415315 107.81530152162955)"><path d="M0.05 -0.58 C16.28 35.35, 82.04 179.28, 98.04 215.28 M-1.38 1.72 C14.73 37.86, 81.05 180.82, 97.68 216.64" stroke="#99DEDE" stroke-width="1" fill="none"></path></g></g><mask></mask><g stroke-linecap="round"><g transform="translate(39.07532293971843 76.96731881460019) rotate(0 114.25629512876446 17.13844426931459)"><path d="M1.14 -0.35 C39.06 5.42, 189.73 28.21, 227.62 34.04 M0.27 -1.58 C38.57 4.43, 191.96 29.78, 229.86 35.46" stroke="#99DEDE" stroke-width="1" fill="none"></path></g></g><mask></mask><g stroke-linecap="round"><g transform="translate(273.1479758052745 123.26580732087083) rotate(0 -31.134969613333595 37.33612538694369)"><path d="M-0.89 -0.23 C-11.47 12.33, -51.94 62.55, -62.31 75.03 M0.84 -1.4 C-10 10.82, -53.02 60.2, -63.29 73.09" stroke="#99DEDE" stroke-width="1" fill="none"></path></g></g><mask></mask><g stroke-linecap="round"><g transform="translate(192.90743905577867 72.63647688199185) rotate(0 75.44739524558847 6.3303465188935135)"><path d="M-0.04 0.36 C25.11 2.5, 124.9 10.54, 150.01 12.64 M-1.53 -0.5 C24.08 1.87, 127.05 11.68, 152.26 14.17" stroke="#99DEDE" stroke-width="1" fill="none"></path></g></g><mask></mask><g stroke-linecap="round"><g transform="translate(91.36860586788697 29.413670905920007) rotate(0 53.22658705681912 82.81126772675037)"><path d="M-0.88 -0.02 C16.82 27.58, 88.15 138.25, 106.2 165.93 M0.85 -1.07 C18.39 26.11, 87.4 136.47, 105.12 163.97" stroke="#99DEDE" stroke-width="1" fill="none"></path></g></g><mask></mask><g stroke-linecap="round"><g transform="translate(193.52804538616658 28.901719937028364) rotate(0 75.25209303604349 27.409470565024073)"><path d="M-0.25 0.31 C25.14 9.52, 126.46 46.23, 151.49 55.25 M1.82 -0.58 C27.22 8.27, 126.56 44, 151.06 53.36" stroke="#99DEDE" stroke-width="1" fill="none"></path></g></g><mask></mask><g stroke-linecap="round"><g transform="translate(100.07125799783813 124.67668150190944) rotate(0 51.547107368133275 4.909248320774687)"><path d="M0.98 0.43 C18.11 1.96, 85.66 8.07, 102.5 9.45 M0.04 -0.38 C17.59 1.28, 87.52 9.16, 104.9 10.8" stroke="#006666" stroke-width="1" fill="none"></path></g></g><mask></mask><g stroke-linecap="round"><g transform="translate(186.3631021887613 83.41512463555476) rotate(0 11.2395948396682 21.704045207634984)"><path d="M-0.6 -0.36 C2.8 6.62, 17.51 35.21, 21.36 42.32 M1.29 -1.6 C4.96 5.45, 20.07 35.84, 23.49 43.28" stroke="#006666" stroke-width="1" fill="none"></path></g></g><mask></mask><g stroke-linecap="round"><g transform="translate(97.25114008847538 129.16712662606744) rotate(0 47.92976650019388 35.91502718882466)"><path d="M-1.11 -1.09 C14.97 10.76, 79.67 58.74, 95.94 70.73 M0.5 0.95 C16.49 12.94, 79.1 59.9, 95.03 71.69" stroke="#E6D2C1" stroke-width="1" fill="none"></path></g></g><mask></mask><g stroke-linecap="round"><g transform="translate(214.1273408944342 205.87070857298949) rotate(0 25.83814905670834 -11.368785584951723)"><path d="M0.08 -1.1 C8.99 -4.87, 43.87 -20.14, 52.34 -23.7 M-1.34 0.94 C7.57 -2.62, 42.63 -19.01, 51.74 -22.66" stroke="#006666" stroke-width="1" fill="none"></path></g></g><mask></mask><g stroke-linecap="round"><g transform="translate(214.14302653792686 211.60361345626836) rotate(0 35.39826420769049 18.7326580661136)"><path d="M0.66 -0.96 C6.42 2.39, 22.88 12.71, 34.61 19.02 C46.34 25.34, 65.19 34, 71.03 36.95 M-0.45 1.15 C5.69 4.22, 25.1 10.91, 36.9 17.05 C48.71 23.19, 64.98 34.6, 70.39 37.99" stroke="#38ABAB" stroke-width="1" fill="none"></path></g></g><mask></mask><g stroke-linecap="round"><g transform="translate(279.41704217939554 187.70751515325114) rotate(0 7.105490990594742 27.130056509543834)"><path d="M-0.79 0.29 C1.51 9.41, 12.13 44.87, 14.45 53.74 M0.99 -0.6 C3.1 8.76, 11.22 45.84, 13.62 55" stroke="#006666" stroke-width="1" fill="none"></path></g></g><mask></mask><g stroke-linecap="round"><g transform="translate(278.96295091982444 170.93396010214806) rotate(0 1.4210981981190258 -22.4791896793362)"><path d="M0.24 -0.52 C0.66 -8.19, 1.23 -38.3, 1.73 -45.72 M-1.1 1.82 C-0.26 -5.74, 3.23 -36.99, 3.86 -44.59" stroke="#006666" stroke-width="1" fill="none"></path></g></g><mask></mask><g stroke-linecap="round"><g transform="translate(294.0629038702927 106.49931094389791) rotate(0 25.708958311424734 -8.784970679280907)"><path d="M-1.11 -0.77 C7.48 -3.62, 43.06 -14.85, 51.8 -17.65 M0.5 1.45 C8.95 -1.17, 42.72 -13.2, 51.05 -16.16" stroke="#006666" stroke-width="1" fill="none"></path></g></g><mask></mask><g stroke-linecap="round"><g transform="translate(348.42718360278667 93.03486626861364) rotate(0 -32.814449302019646 40.43670327374858)"><path d="M0.38 -0.08 C-10.39 13.52, -54.67 67.38, -65.75 80.85 M-0.88 -1.17 C-11.72 12.7, -55.73 68.52, -66.76 82.38" stroke="#38ABAB" stroke-width="1" fill="none"></path></g></g><mask></mask><g stroke-linecap="round"><g transform="translate(286.18541806712335 181.00584444102918) rotate(0 33.84797526428782 4.90924832077458)"><path d="M-0.12 -0.02 C11.02 1.61, 55.87 8.05, 67.24 9.7 M-1.65 -1.07 C9.27 0.76, 54.52 9.13, 66.06 11.17" stroke="#009999" stroke-width="1" fill="none"></path></g></g><mask></mask><g stroke-linecap="round"><g transform="translate(219.1054045463401 140.7286933610204) rotate(0 23.771097132171807 17.440750613278098)"><path d="M-0.45 -0.12 C7.56 5.7, 39.92 29.08, 47.96 34.9 M1.51 -1.23 C9.41 4.79, 39.62 30.23, 47.23 36.45" stroke="#006666" stroke-width="1" fill="none"></path></g></g><mask></mask><g stroke-linecap="round"><g transform="translate(219.4262455970511 131.80874009570903) rotate(0 24.80462309443997 -7.363872481161877)"><path d="M0.42 0.02 C8.81 -2.43, 41.7 -12.51, 49.87 -14.82 M-0.82 -1.02 C7.47 -3.26, 40.82 -10.88, 49.05 -13.34" stroke="#006666" stroke-width="1" fill="none"></path></g></g><mask></mask><g stroke-linecap="round"><g transform="translate(269.762069550647 103.46663002801795) rotate(0 -38.49884209449535 -13.694219000055494)"><path d="M0.26 -0.1 C-12.68 -4.52, -64.42 -22.04, -77.18 -26.53 M-1.07 -1.19 C-14.21 -5.95, -65.62 -23.54, -78.23 -28.19" stroke="#006666" stroke-width="1" fill="none"></path></g></g><mask></mask><g stroke-linecap="round" transform="translate(179.63871153678298 17.308505018897144) rotate(0 6.699462933989416 7.00398397644331)"><path d="M8.34 0.9 C9.66 1.29, 11.74 2.01, 12.57 3.26 C13.41 4.5, 13.43 7.04, 13.35 8.37 C13.28 9.71, 13.01 10.3, 12.12 11.25 C11.23 12.2, 9.58 13.89, 7.99 14.09 C6.39 14.29, 4.01 13.49, 2.56 12.46 C1.11 11.43, -0.25 9.49, -0.7 7.9 C-1.15 6.3, -0.89 4.18, -0.15 2.88 C0.6 1.58, 2.22 0.38, 3.77 0.12 C5.31 -0.14, 8.1 0.91, 9.14 1.3 C10.18 1.69, 9.83 2.46, 10.02 2.45 M6.59 1.25 C7.73 1.25, 8.79 2.51, 10.02 3.28 C11.25 4.04, 13.33 4.35, 13.96 5.83 C14.59 7.3, 14.84 10.6, 13.79 12.11 C12.74 13.61, 9.53 14.49, 7.66 14.86 C5.79 15.23, 3.78 15.09, 2.56 14.32 C1.34 13.55, 0.76 11.5, 0.35 10.25 C-0.05 8.99, -0.19 8.47, 0.13 6.8 C0.45 5.14, 1.34 1.24, 2.26 0.24 C3.19 -0.76, 5.05 0.77, 5.66 0.8 C6.26 0.84, 5.45 0.29, 5.89 0.48" stroke="#006666" stroke-width="1" fill="none"></path></g><g stroke-linecap="round" transform="translate(343.47103237706955 77.60367142480247) rotate(0 10.35371544343812 8.526589188713764)"><path d="M9.06 0.2 C11.17 -0.18, 13.74 1, 15.72 1.79 C17.71 2.58, 20.12 3.29, 20.98 4.94 C21.84 6.59, 21.86 9.9, 20.9 11.71 C19.93 13.53, 17.43 15.1, 15.19 15.84 C12.95 16.58, 9.74 16.66, 7.45 16.17 C5.15 15.68, 2.7 14.26, 1.42 12.88 C0.13 11.5, -0.35 9.47, -0.28 7.88 C-0.2 6.3, 0.12 4.56, 1.85 3.37 C3.58 2.18, 8.11 1.26, 10.11 0.75 C12.11 0.24, 13.7 0.29, 13.86 0.32 M13.59 2.22 C15.72 2.61, 19.03 3.02, 20.4 4.67 C21.78 6.32, 22.68 10.1, 21.81 12.11 C20.95 14.12, 17.54 15.76, 15.21 16.73 C12.88 17.69, 9.92 18.25, 7.81 17.89 C5.71 17.53, 3.87 15.79, 2.57 14.57 C1.26 13.35, 0.15 12.59, -0.02 10.56 C-0.2 8.53, 0.46 3.98, 1.53 2.39 C2.59 0.81, 4.36 1.25, 6.39 1.05 C8.41 0.85, 12.07 0.98, 13.68 1.18 C15.28 1.38, 16.1 2.11, 16.01 2.26" stroke="#006666" stroke-width="1" fill="none"></path></g><g stroke-linecap="round" transform="translate(10 146.65414075614154) rotate(0 14.418022166291166 14.418022166291166)"><path d="M18.71 1.21 C21.66 1.75, 25.56 3.27, 27.38 5.79 C29.2 8.31, 30.17 13.18, 29.61 16.36 C29.06 19.53, 26.62 22.9, 24.05 24.86 C21.48 26.81, 17.41 28.09, 14.21 28.1 C11 28.11, 7.17 26.73, 4.81 24.9 C2.46 23.07, 0.73 19.9, 0.07 17.12 C-0.58 14.35, -0.43 10.81, 0.89 8.27 C2.21 5.72, 4.67 3.06, 7.99 1.85 C11.31 0.63, 18.59 0.94, 20.81 0.98 C23.03 1.02, 21.38 1.89, 21.31 2.08 M20.82 0.85 C24.04 1.84, 27.73 6.26, 28.84 9.28 C29.95 12.3, 28.7 16.04, 27.47 18.98 C26.24 21.92, 23.86 25.27, 21.47 26.92 C19.08 28.58, 15.98 29.02, 13.13 28.91 C10.29 28.8, 6.65 28.6, 4.41 26.26 C2.16 23.92, 0.22 18.04, -0.35 14.86 C-0.92 11.69, -0.6 9.54, 0.99 7.21 C2.58 4.89, 5.77 1.7, 9.18 0.91 C12.59 0.12, 19.84 2.3, 21.44 2.47 C23.05 2.64, 19.04 2.11, 18.8 1.93" stroke="#006666" stroke-width="1" fill="none"></path></g><g stroke-linecap="round" transform="translate(165.02170149898836 59.941450962466554) rotate(0 13.398925867978832 13.398925867978829)"><path d="M17.97 0.61 C20.48 1.31, 23.04 3.49, 24.36 5.73 C25.67 7.97, 26.26 11.34, 25.84 14.06 C25.43 16.78, 23.82 20, 21.86 22.05 C19.89 24.09, 16.91 25.86, 14.07 26.31 C11.23 26.76, 7.24 26.2, 4.82 24.72 C2.39 23.23, -0.02 20.28, -0.47 17.39 C-0.92 14.5, 0.68 10.07, 2.11 7.38 C3.53 4.68, 5.1 2.31, 8.05 1.23 C11 0.14, 17.59 0.81, 19.8 0.85 C22 0.89, 21.37 1.15, 21.28 1.47 M10.82 1.25 C13.01 0.68, 16.71 1.66, 19.22 3.05 C21.72 4.44, 24.78 6.76, 25.86 9.59 C26.93 12.42, 26.81 17.62, 25.68 20.06 C24.54 22.49, 21.83 23, 19.04 24.2 C16.25 25.4, 11.87 27.65, 8.95 27.24 C6.02 26.84, 2.78 24, 1.5 21.78 C0.22 19.57, 1.11 16.79, 1.25 13.94 C1.38 11.09, 0.5 7.21, 2.31 4.7 C4.13 2.2, 10.49 -0.14, 12.14 -1.08 C13.8 -2.02, 12.35 -1.32, 12.23 -0.93" stroke="#006666" stroke-width="1" fill="none"></path></g><g stroke-linecap="round" transform="translate(267.9498138484626 98.9201443965858) rotate(0 13.39892586797883 13.398925867978832)"><path d="M7.75 1.02 C9.87 -0.39, 13.51 -0.86, 16.15 -0.22 C18.79 0.42, 21.89 2.46, 23.61 4.87 C25.33 7.29, 26.72 11.19, 26.45 14.28 C26.19 17.38, 24.18 21.26, 22.03 23.46 C19.88 25.66, 16.14 27.38, 13.52 27.49 C10.91 27.6, 8.49 25.9, 6.33 24.11 C4.16 22.32, 1.21 19.57, 0.53 16.76 C-0.15 13.95, 0.27 10.16, 2.23 7.25 C4.19 4.34, 9.99 0.36, 12.29 -0.71 C14.6 -1.79, 16.21 0.26, 16.07 0.79 M17.35 2.04 C20.01 2.81, 23.58 4.95, 25.08 7.61 C26.58 10.28, 27.06 15.46, 26.35 18.04 C25.65 20.62, 23.4 21.5, 20.85 23.09 C18.3 24.68, 14.04 27.51, 11.05 27.56 C8.06 27.61, 4.53 25.29, 2.91 23.37 C1.29 21.46, 1.63 18.9, 1.31 16.06 C0.99 13.23, -0.47 9.15, 0.99 6.37 C2.45 3.58, 7.02 0.43, 10.06 -0.66 C13.11 -1.74, 17.9 -0.45, 19.26 -0.14 C20.63 0.17, 18.32 0.85, 18.23 1.21" stroke="#006666" stroke-width="1" fill="none"></path></g><g stroke-linecap="round" transform="translate(187.5562586405897 195.7578358969781) rotate(0 13.398925867978832 13.398925867978832)"><path d="M13.16 -0.71 C15.78 -0.88, 19.43 0.59, 21.64 2.58 C23.84 4.57, 26.03 8.17, 26.41 11.26 C26.8 14.35, 25.6 18.51, 23.95 21.12 C22.29 23.73, 18.99 26.18, 16.5 26.93 C14 27.67, 11.45 26.81, 8.97 25.59 C6.49 24.37, 2.89 22.17, 1.6 19.59 C0.31 17.01, 0.48 13.06, 1.23 10.11 C1.99 7.16, 3.5 3.45, 6.12 1.88 C8.74 0.3, 15.02 0.64, 16.94 0.66 C18.86 0.69, 17.68 2, 17.62 2.05 M18.04 1.07 C20.87 2.01, 23.83 6.18, 25.17 8.5 C26.51 10.83, 26.9 12.32, 26.08 15.02 C25.25 17.73, 22.62 22.72, 20.24 24.74 C17.85 26.75, 14.19 27.14, 11.76 27.12 C9.34 27.1, 7.83 26.52, 5.68 24.62 C3.53 22.73, -0.61 18.98, -1.16 15.74 C-1.71 12.49, 0.59 7.87, 2.39 5.14 C4.2 2.41, 7.08 0.1, 9.66 -0.63 C12.25 -1.36, 16.39 0.53, 17.9 0.78 C19.42 1.02, 18.81 0.37, 18.77 0.83" stroke="#006666" stroke-width="1" fill="none"></path></g><g stroke-linecap="round" transform="translate(283.17586597116536 242.04503434999594) rotate(0 13.39892586797883 13.398925867978832)"><path d="M11.43 -0.94 C14.24 -1.29, 18.49 0.11, 20.86 2.01 C23.22 3.9, 25.01 7.49, 25.64 10.46 C26.27 13.43, 25.62 17.36, 24.64 19.85 C23.66 22.34, 22.2 24.32, 19.76 25.41 C17.32 26.5, 12.73 27.17, 9.99 26.39 C7.24 25.6, 4.81 23.21, 3.29 20.7 C1.77 18.19, 0.62 14.05, 0.88 11.32 C1.15 8.58, 2.73 6, 4.88 4.28 C7.03 2.57, 11.84 1.75, 13.78 1.01 C15.72 0.27, 16.37 -0.06, 16.53 -0.17 M17.24 1.99 C19.89 2.41, 22.85 2.64, 24.19 4.94 C25.53 7.24, 25.74 12.7, 25.27 15.8 C24.8 18.89, 23.02 21.47, 21.37 23.51 C19.71 25.55, 18.24 27.85, 15.36 28.03 C12.47 28.21, 6.5 26.69, 4.06 24.57 C1.62 22.44, 1.08 18.35, 0.72 15.26 C0.35 12.17, 0.72 8.44, 1.87 6.05 C3.03 3.65, 5 1.86, 7.64 0.88 C10.29 -0.09, 16.21 -0.02, 17.76 0.19 C19.32 0.41, 16.91 2, 16.97 2.16" stroke="#006666" stroke-width="1" fill="none"></path></g><g stroke-linecap="round" transform="translate(20.678727375761753 67.85899806627171) rotate(0 9.135631273621755 9.135631273621751)"><path d="M5.63 0.13 C7.35 -0.39, 9.69 0.14, 11.44 0.98 C13.19 1.83, 14.88 3.63, 16.12 5.21 C17.37 6.79, 19.06 8.64, 18.91 10.45 C18.75 12.27, 16.67 14.88, 15.2 16.13 C13.74 17.37, 11.98 18.07, 10.14 17.94 C8.3 17.81, 5.68 16.47, 4.17 15.35 C2.66 14.23, 1.61 12.84, 1.07 11.23 C0.53 9.61, -0.08 7.56, 0.93 5.66 C1.94 3.75, 6.05 0.83, 7.15 -0.19 C8.25 -1.22, 7.52 -0.7, 7.53 -0.49 M9 -1.14 C10.64 -1.29, 12.48 1.58, 13.81 3.13 C15.14 4.68, 16.27 6.16, 16.99 8.18 C17.71 10.19, 19.17 13.53, 18.12 15.22 C17.07 16.9, 12.68 18.07, 10.68 18.27 C8.68 18.47, 7.63 17.45, 6.1 16.43 C4.57 15.41, 2.57 13.71, 1.5 12.14 C0.44 10.58, -0.71 8.82, -0.3 7.06 C0.11 5.3, 2.39 2.52, 3.97 1.56 C5.55 0.61, 8.09 1.68, 9.19 1.33 C10.3 0.97, 10.36 -0.29, 10.62 -0.57" stroke="#006666" stroke-width="1" fill="none"></path></g><g stroke-linecap="round" transform="translate(76.10155710240181 13.654252509448881) rotate(0 9.135631273621755 9.135631273621753)"><path d="M4.11 1.55 C5.6 0.76, 7.98 0.63, 10.15 0.93 C12.31 1.23, 15.71 1.91, 17.08 3.33 C18.45 4.76, 18.42 7.57, 18.38 9.5 C18.34 11.43, 18.03 13.6, 16.84 14.91 C15.65 16.21, 13.19 16.93, 11.25 17.33 C9.31 17.73, 7.06 18.02, 5.22 17.3 C3.38 16.57, 0.83 15.01, 0.21 12.97 C-0.41 10.94, 0.54 7.27, 1.49 5.09 C2.45 2.91, 5.17 0.64, 5.96 -0.1 C6.74 -0.84, 6.27 0.36, 6.22 0.66 M11.86 1.79 C13.44 2.78, 15.15 4.02, 16.36 5.9 C17.56 7.78, 19.69 11.17, 19.1 13.06 C18.51 14.95, 14.6 16.59, 12.82 17.25 C11.03 17.91, 10.04 17.55, 8.39 17.02 C6.73 16.49, 4.36 15.34, 2.88 14.07 C1.4 12.8, -0.39 11.22, -0.48 9.42 C-0.58 7.62, 1.09 4.56, 2.31 3.25 C3.53 1.94, 4.81 2.06, 6.84 1.56 C8.86 1.05, 13.19 0.52, 14.47 0.24 C15.75 -0.03, 14.74 -0.13, 14.51 -0.09" stroke="#006666" stroke-width="1" fill="none"></path></g></svg>