<svg xmlns="http://www.w3.org/2000/svg" xmlns:xlink="http://www.w3.org/1999/xlink" xmlns:svgjs="http://svgjs.com/svgjs" version="1.1" width="512" height="512" x="0" y="0" viewBox="0 0 511.999 511.999" style="enable-background:new 0 0 512 512" xml:space="preserve" class=""><g><path d="M8 107.517v303.366a16 16 0 0 0 12.862 15.689l133.953 26.791a47.995 47.995 0 0 0 25.817-1.958l154.946-56.343a31.999 31.999 0 0 1 17.211-1.305l132.073 26.415c9.901 1.98 19.138-5.593 19.138-15.689V101.117a15.999 15.999 0 0 0-12.862-15.689L357.185 58.637a47.995 47.995 0 0 0-25.817 1.958l-154.946 56.343a31.999 31.999 0 0 1-17.211 1.305L27.138 91.828C17.237 89.847 8 97.42 8 107.517z" style="" fill="#99dede" data-original="#00c3ff" class=""/><path d="M491.138 85.428 357.186 58.637A47.945 47.945 0 0 0 344 57.863v335.379a32.024 32.024 0 0 1 8.79.516l132.073 26.415c9.9 1.98 19.138-5.592 19.138-15.689V101.116a16 16 0 0 0-12.863-15.688z" style="" fill="#38abab" data-original="#00aaf0" class=""/><path d="M491.138 85.428 357.186 58.637a47.995 47.995 0 0 0-25.817 1.958l-45.345 16.489c-12.74 23.303-.026 50.354 21.977 60.25 33.167 14.917 84.751 31.499 92 62.667 6.667 28.667-24 68 24 72 45.601 3.8 40.823 58.532 80 45.097v-215.98a16 16 0 0 0-12.863-15.69z" style="" fill="#e6d2c1" data-original="#b4e66e" class=""/><path d="M491.138 85.428 357.186 58.637A47.945 47.945 0 0 0 344 57.863v94.991c26 11.721 51.106 26.104 56 47.147 6.667 28.667-24 68 24 72 45.601 3.8 40.823 58.532 80 45.097v-215.98a15.999 15.999 0 0 0-12.862-15.69z" style="" fill="#af9178" data-original="#a0d755" class=""/><path d="m20.862 426.573 133.952 26.791a47.995 47.995 0 0 0 25.817-1.958l42.619-15.497L224 432c-24-64-99.094-.53-88-56 8-40-24-80-56-72s-36.12-24.478-40-40c-8-32-32-32-32-32v178.883a16.001 16.001 0 0 0 12.862 15.69z" style="" fill="#e6d2c1" data-original="#b4e66e" class=""/><path d="M168 118.758c-2.927.23-5.884.065-8.79-.516L27.138 91.827C17.237 89.847 8 97.42 8 107.517v303.366a16 16 0 0 0 12.862 15.689l133.952 26.791a47.945 47.945 0 0 0 13.186.774V118.758z" style="" fill="#38abab" data-original="#00aaf0" class=""/><path d="M207 159c-19.068-6.356-56-8-72 16s0 48 32 48 40-16 48 0 40 16 40-8-24-48-48-56zM222 276c-7.589 2.53-24 32-8 40s40 0 40-16c0-8-8-32-32-24z" style="" fill="#e6d2c1" data-original="#b4e66e" class=""/><path d="m20.862 426.573 133.952 26.791a47.945 47.945 0 0 0 13.186.774v-53.383c-20.93.899-37.651 3.5-32-24.755 8-40-24-80-56-72s-36.12-24.478-40-40c-8-32-32-32-32-32v178.883a16.001 16.001 0 0 0 12.862 15.69zM448 360c-11.894 5.802-19.4 16.281-44 8.667-28-8.667-36 15.333-36.667 26v2l117.529 23.506c9.9 1.98 19.138-5.592 19.138-15.689V392c0-16-28.667-45.334-56-32zM168 222.969v-67.041c-12.954 2.048-25.364 7.618-33 19.072-16 24 0 48 32 48 .35 0 .656-.027 1-.031z" style="" fill="#af9178" data-original="#a0d755" class=""/><path d="M493.083 77.729 358.86 50.884a55.578 55.578 0 0 0-29.903 2.268l-155.258 56.457a24.55 24.55 0 0 1-13.212 1.001L28.147 84.142a23.459 23.459 0 0 0-19.534 4.877A23.449 23.449 0 0 0 0 107.217v303.978c0 11.178 7.956 20.883 18.917 23.076l134.223 26.845a55.596 55.596 0 0 0 29.903-2.268l155.258-56.457a24.558 24.558 0 0 1 13.212-1.001l132.339 26.468a23.447 23.447 0 0 0 19.534-4.877 23.446 23.446 0 0 0 8.613-18.198V100.805c.001-11.179-7.955-20.883-18.916-23.076zm-159-10.481a40.214 40.214 0 0 1 2.594-.844v74.756c-3.089-1.322-6.145-2.61-9.128-3.867-5.813-2.449-11.304-4.762-16.368-7.04-8.397-3.777-15.223-11.892-18.728-22.264-3.165-9.368-3.166-19.312-.055-25.584l41.685-15.157zm-166.26 117.123a7.5 7.5 0 0 0-7.5 7.5v23.149c-10.456-1.332-18.553-5.904-22.249-12.809-3.605-6.735-2.567-14.979 2.922-23.214 12.888-19.332 44.912-19.286 63.533-13.078 20.751 6.917 42.969 28.257 42.969 48.998 0 6.145-2.849 9.932-8.468 11.259-6.842 1.613-14.81-1.407-17.405-6.597-4.367-8.735-9.804-11.245-15.436-11.245-4.006 0-8.112 1.271-12.001 2.474-5.011 1.551-10.946 3.385-18.866 4.199v-23.136a7.499 7.499 0 0 0-7.499-7.5zM21.859 419.562A8.554 8.554 0 0 1 15 411.195V241.543c.785.367 1.597.79 2.428 1.297 7.134 4.35 12.133 12.087 14.861 22.996.336 1.345.674 2.822 1.033 4.39 2.717 11.863 6.823 29.79 20.505 38.186 4.815 2.954 10.319 4.435 16.448 4.435 3.527 0 7.261-.491 11.188-1.473a7.5 7.5 0 0 0 5.457-9.095c-1.005-4.019-5.08-6.464-9.095-5.457-6.792 1.697-12.076 1.307-16.154-1.196-8.313-5.1-11.443-18.769-13.729-28.749a246.185 246.185 0 0 0-1.103-4.679c-6.48-25.92-22.343-34.037-31.84-36.581v-27.864c.572-.124 1.152-.262 1.716-.372a7.5 7.5 0 0 0 5.928-8.795c-.717-3.68-4.009-6.193-7.645-6.053v-75.314a8.5 8.5 0 0 1 3.123-6.598 8.499 8.499 0 0 1 7.083-1.769l132.339 26.467c.922.185 1.849.333 2.778.45v23.799c-13.926 3.452-24.831 10.645-31.807 21.109-8.578 12.866-9.914 26.939-3.667 38.612 6.267 11.711 19.272 19.236 35.474 20.821v163.772c-7.363.312-14.746.331-16.848-2.112-.774-.899-2.36-4.069-.362-14.057 5.915-29.575-8.092-62.249-32.58-76.002a7.5 7.5 0 0 0-7.346 13.078c16.218 9.109 30.567 33.227 25.216 59.982-2.49 12.449-1.313 20.96 3.704 26.787 6.436 7.473 16.859 7.799 28.215 7.337v38.107a40.686 40.686 0 0 1-4.241-.594l-134.22-26.846zm156.058 25.189c-.857.312-1.722.592-2.594.844v-37.254c15.889-.074 30.984 2.966 39.991 22.812l-37.397 13.598zm51.541-18.741c-12.39-28.579-35.141-32.653-54.135-32.65V230.061c10.263-.898 17.885-3.247 23.299-4.923 2.748-.85 6.498-2.001 7.607-1.823.167.13.881.776 1.98 2.973 4.728 9.456 15.511 15.347 26.849 15.347 2.465 0 4.957-.278 7.418-.859 12.35-2.916 20.021-12.823 20.021-25.857 0-13.056-6.021-26.937-16.956-39.086-9.848-10.942-23.067-19.742-36.269-24.143-10.199-3.399-22.476-4.918-33.95-4.308v-22.605a39.551 39.551 0 0 0 3.502-1.071l96.58-35.119c-.831 7.613.093 16.082 2.838 24.206 4.906 14.521 14.419 25.58 26.786 31.142 5.228 2.352 10.799 4.699 16.697 7.183 3.227 1.36 6.54 2.756 9.885 4.193a7.463 7.463 0 0 0-2.923 2.73c-2.717 4.454-5.229 9.406-7.465 14.718a7.502 7.502 0 0 0 6.909 10.412 7.504 7.504 0 0 0 6.916-4.592 107.784 107.784 0 0 1 1.629-3.669v212.315c-1.179.309-2.35.652-3.502 1.071L229.458 426.01zm122.219-39.779v-221.77c6.818 3.372 13.345 6.962 19.113 10.824a7.47 7.47 0 0 0 4.167 1.27 7.5 7.5 0 0 0 4.18-13.733c-8.304-5.562-17.795-10.497-27.459-14.999v-1.914a7.527 7.527 0 0 0 4.21 1.291 7.468 7.468 0 0 0 4.174-1.274c3.683-2.473 7.734-4.548 12.044-6.167a7.5 7.5 0 1 0-5.276-14.041c-5.395 2.027-10.485 4.636-15.13 7.755l-.022.017V64.999c1.419.131 2.835.313 4.241.594l134.222 26.845a8.554 8.554 0 0 1 6.859 8.367v206.509c-10.952 4.632-15.09 2.633-16.547 1.919-4.185-2.052-7.508-7.395-11.356-13.582-7.591-12.202-17.986-28.914-44.135-31.093-9.331-.777-15.48-3.008-18.279-6.631-4.115-5.328-2.315-15.67-.41-26.62 1.811-10.405 3.862-22.199 1.323-33.12-.94-4.041-2.528-8.018-4.721-11.819a7.5 7.5 0 0 0-10.244-2.749 7.5 7.5 0 0 0-2.749 10.244c1.455 2.522 2.499 5.12 3.104 7.722 1.849 7.952.151 17.712-1.491 27.15-2.378 13.668-4.837 27.803 3.318 38.361 5.556 7.193 15.01 11.252 28.904 12.41 18.639 1.553 25.441 12.489 32.644 24.067 6.198 9.963 13.479 21.668 28.844 21.668 3.488 0 7.394-.606 11.796-1.969v40.744a59.661 59.661 0 0 0-9.179-7.09c-14.083-8.799-29.255-10.027-42.722-3.458-2.771 1.352-5.227 2.861-7.6 4.321-8.177 5.027-14.635 8.999-30.983 3.939-15.133-4.684-25.196-.913-30.974 3.075-8.211 5.667-12.677 15.007-14.513 23.192l-6.574-1.315a40.572 40.572 0 0 0-2.779-.449zM497 404.783a8.5 8.5 0 0 1-3.123 6.598 8.502 8.502 0 0 1-7.083 1.768l-111.042-22.208c1.099-4.637 3.567-10.517 8.311-13.792 4.425-3.054 10.488-3.421 18.018-1.091 22.845 7.072 34.173.106 43.275-5.491 2.163-1.33 4.206-2.586 6.319-3.617 11.084-5.406 21.451-1.518 28.197 2.698C491.048 376.631 497 387.275 497 392.274v12.509z" fill="#000000" data-original="#000000" class=""/><path d="M261.496 300.089c0-6.857-3.879-20.531-14.288-28.034-5.343-3.85-14.479-7.519-27.648-3.13-8.878 2.959-18.894 19.625-19.846 33.023-.685 9.625 3.168 17.041 10.848 20.88 5.307 2.654 11.361 3.963 17.438 3.963 7.364 0 14.759-1.924 20.889-5.712 8.012-4.951 12.607-12.602 12.607-20.99zm-20.493 8.231c-6.717 4.15-16.698 4.61-23.733 1.093-1.312-.656-2.539-1.714-2.628-4.981-.229-8.34 6.968-19.512 9.896-21.353 5.71-1.854 10.259-1.478 13.899 1.146 5.74 4.137 8.059 12.905 8.059 15.865 0 3.996-2.987 6.682-5.493 8.23zM256.137 359.477c-4.933.816-9.768 1.313-14.371 1.475a7.5 7.5 0 1 0 .528 14.99c5.244-.184 10.726-.745 16.292-1.666a7.5 7.5 0 0 0-2.449-14.799zM213.914 357.381a72.956 72.956 0 0 1-12.813-5.488 7.5 7.5 0 0 0-7.192 13.164 88.122 88.122 0 0 0 15.452 6.617 7.498 7.498 0 0 0 2.278.355 7.5 7.5 0 0 0 2.275-14.648zM296.562 334.501a7.5 7.5 0 0 0-10.144 3.098c-2.265 4.256-4.835 7.913-7.641 10.867a7.5 7.5 0 1 0 10.878 10.328c3.738-3.937 7.104-8.698 10.005-14.149a7.5 7.5 0 0 0-3.098-10.144zM307.245 289.487c-4.08-.672-7.947 2.091-8.622 6.178-.898 5.44-1.827 10.26-2.84 14.734a7.5 7.5 0 0 0 7.322 9.158 7.503 7.503 0 0 0 7.308-5.845c1.079-4.765 2.063-9.869 3.01-15.603a7.5 7.5 0 0 0-6.178-8.622zM140.206 305.543a7.497 7.497 0 0 0 10.257 2.703 7.5 7.5 0 0 0 2.702-10.257c-2.661-4.564-5.291-9.254-7.546-13.292a7.5 7.5 0 0 0-10.206-2.889 7.5 7.5 0 0 0-2.889 10.206c2.288 4.094 4.957 8.855 7.682 13.529zM312.837 243.461c-4.11-.492-7.844 2.447-8.335 6.559-.38 3.188-.75 6.371-1.12 9.542l-.68 5.824a7.5 7.5 0 0 0 14.897 1.751l.682-5.84c.368-3.157.736-6.327 1.115-9.499a7.5 7.5 0 0 0-6.559-8.337zM113.587 260.309a163.438 163.438 0 0 1 3.644 5.434 7.493 7.493 0 0 0 10.365 2.249 7.5 7.5 0 0 0 2.249-10.365 180.235 180.235 0 0 0-3.981-5.937 697.265 697.265 0 0 0-5.025-7.07 7.5 7.5 0 1 0-12.169 8.769 701.99 701.99 0 0 1 4.917 6.92zM101.436 219.78c-3.789-4.357-7.397-8.181-11.029-11.688a7.5 7.5 0 0 0-10.42 10.79c3.316 3.202 6.629 6.715 10.13 10.741a7.48 7.48 0 0 0 5.663 2.579 7.5 7.5 0 0 0 5.656-12.422zM320.729 197.812a7.498 7.498 0 0 0-8.941 5.705c-1.072 4.852-2.052 9.935-2.997 15.539a7.5 7.5 0 0 0 7.405 8.747 7.502 7.502 0 0 0 7.387-6.255c.901-5.353 1.834-10.192 2.851-14.794a7.499 7.499 0 0 0-5.705-8.942zM63.666 188.68c-5.212-2.553-10.617-4.493-16.062-5.767a7.502 7.502 0 0 0-3.415 14.607c4.347 1.016 8.68 2.574 12.879 4.631a7.5 7.5 0 0 0 10.034-3.437 7.499 7.499 0 0 0-3.436-10.034zM400.355 135.039c2.428-.016 4.971.048 7.535.191a7.5 7.5 0 0 0 7.904-7.071 7.5 7.5 0 0 0-7.072-7.905c-2.872-.16-5.721-.23-8.464-.214a7.501 7.501 0 0 0-7.452 7.548c.027 4.141 3.435 7.467 7.549 7.451zM435.068 149.078c1.464 1.464 3.384 2.197 5.303 2.197s3.839-.732 5.303-2.197l10.729-10.729 10.729 10.729c1.464 1.465 3.384 2.197 5.303 2.197s3.839-.732 5.303-2.197a7.5 7.5 0 0 0 0-10.606l-10.729-10.729 10.729-10.729a7.5 7.5 0 0 0 0-10.606 7.5 7.5 0 0 0-10.606 0l-10.729 10.729-10.729-10.729c-2.928-2.929-7.677-2.929-10.606 0s-2.929 7.678 0 10.606l10.729 10.729-10.729 10.729a7.5 7.5 0 0 0 0 10.606z" fill="#000000" data-original="#000000" class=""/></g></svg>