<svg xmlns="http://www.w3.org/2000/svg" version="1.1" xmlns:xlink="http://www.w3.org/1999/xlink" xmlns:svgjs="http://svgjs.com/svgjs" width="512" height="512" x="0" y="0" viewBox="0 0 682.667 682.667" style="enable-background:new 0 0 512 512" xml:space="preserve" class=""><g><defs><clipPath id="a" clipPathUnits="userSpaceOnUse"><path d="M0 512h512V0H0Z" fill="#000000" data-original="#000000"></path></clipPath></defs><g clip-path="url(#a)" transform="matrix(1.33333 0 0 -1.33333 0 682.667)"><path d="M0 0c23.228-6.752 43.132-20.258 57.48-37.11.01 0 .02-.01.02-.02a121.635 121.635 0 0 0 7.41-9.56v-.01c2.083-2.951 4.713-7.179 6.05-9.63.01-.01.02-.021.02-.03 4.401-7.801 8.085-16.491 10.73-25.67.01 0 0-.01 0-.01 11.754-41.024 1.166-86.364-30.49-118.021l-83.58-83.569c-46.86-46.87-122.84-46.87-169.7 0-46.871 46.871-46.862 122.838 0 169.699l83.57 83.58C-103.03-14.9-84.42-4.54-64.72.72a120.637 120.637 0 0 1-4.07-31.071 120.2 120.2 0 0 1 4.66-33.179 59.459 59.459 0 0 1-11.93-9.25l-83.58-83.571c-23.39-23.399-23.39-61.46 0-84.859 23.4-23.391 61.46-23.391 84.86 0l83.57 83.58c23.399 23.4 23.396 61.454 0 84.85C-10.95-53.04-14.04-22.86-.46.14-.31.1-.15.05 0 0" style="fill-opacity:1;fill-rule:nonzero;stroke:none" transform="translate(247.21 328.78)" fill="#e6d2c1" data-original="#ffe470" class=""></path><path d="M0 0c-46.859 46.87-122.84 46.87-169.699 0l-83.58-83.569c-46.768-46.768-46.974-122.738 0-169.71 14.91-14.901 32.759-25.071 51.679-30.491 13.58 23 10.491 53.18-9.25 72.92-23.399 23.4-23.395 61.454 0 84.85l85.071 85.07.029-.019c23.382 21.861 60.396 21.465 83.33-1.471 23.391-23.399 23.391-61.46 0-84.859L-126-210.85a60.102 60.102 0 0 0-11.93-9.259 120.514 120.514 0 0 0 .59-64.241c19.7 5.26 38.311 15.621 53.771 31.071L0-169.699C46.872-122.828 46.862-46.861 0 0" style="fill-opacity:1;fill-rule:nonzero;stroke:none" transform="translate(466.85 466.85)" fill="#99dede" data-original="#9ed0ff" class=""></path><path d="M0 0c18.924-5.424 36.775-15.589 51.682-30.494 46.862-46.863 46.862-122.843 0-169.706l-83.575-83.573c-46.862-46.864-122.842-46.864-169.705 0-46.863 46.862-46.863 122.842 0 169.705l83.574 83.574C-102.569-15.039-83.946-4.681-64.246.58c-19.7-5.261-38.323-15.619-53.778-31.074l-83.574-83.574c-46.863-46.863-46.863-122.843 0-169.705 46.863-46.864 122.843-46.864 169.705 0L51.682-200.2c46.862 46.863 46.862 122.843 0 169.706C36.775-15.589 18.924-5.424 0 0Z" style="stroke-width:20;stroke-linecap:round;stroke-linejoin:round;stroke-miterlimit:10;stroke-dasharray:none;stroke-opacity:1" transform="translate(246.745 328.92)" fill="none" stroke="#000000" stroke-width="20" stroke-linecap="round" stroke-linejoin="round" stroke-miterlimit="10" stroke-dasharray="none" stroke-opacity="" data-original="#000000" class=""></path><path d="M0 0a59.96 59.96 0 0 1 11.932 9.255l83.574 83.573c23.394 23.396 23.394 61.458 0 84.854-21.021 21.019-53.88 23.153-77.304 6.402" style="stroke-width:20;stroke-linecap:round;stroke-linejoin:round;stroke-miterlimit:10;stroke-dasharray:none;stroke-opacity:1" transform="translate(328.92 246.745)" fill="none" stroke="#000000" stroke-width="20" stroke-linecap="round" stroke-linejoin="round" stroke-miterlimit="10" stroke-dasharray="none" stroke-opacity="" data-original="#000000" class=""></path><path d="m0 0-34.076-34.076c-23.396-23.395-23.396-61.457 0-84.853 23.395-23.395 23.395-61.458 0-84.852l-83.573-83.574c-23.396-23.395-61.458-23.395-84.854 0-23.394 23.395-23.394 61.458 0 84.853l83.574 83.573a59.924 59.924 0 0 0 11.932 9.255" style="stroke-width:20;stroke-linecap:round;stroke-linejoin:round;stroke-miterlimit:10;stroke-dasharray:none;stroke-opacity:1" transform="translate(290.076 374.929)" fill="none" stroke="#000000" stroke-width="20" stroke-linecap="round" stroke-linejoin="round" stroke-miterlimit="10" stroke-dasharray="none" stroke-opacity="" data-original="#000000" class=""></path><path d="M0 0c-18.924 5.424-36.775 15.589-51.682 30.494-46.862 46.863-46.862 122.843 0 169.706l83.575 83.573c46.862 46.864 122.842 46.864 169.705 0 46.863-46.862 46.863-122.842 0-169.705l-83.574-83.574C102.569 15.039 83.946 4.681 64.246-.58c19.7 5.261 38.323 15.619 53.778 31.074l83.574 83.574c46.863 46.863 46.863 122.843 0 169.705-46.863 46.864-122.843 46.864-169.705 0L-51.682 200.2c-46.862-46.863-46.862-122.843 0-169.706C-36.775 15.589-18.924 5.424 0 0Z" style="stroke-width:20;stroke-linecap:round;stroke-linejoin:round;stroke-miterlimit:10;stroke-dasharray:none;stroke-opacity:1" transform="translate(265.255 183.08)" fill="none" stroke="#000000" stroke-width="20" stroke-linecap="round" stroke-linejoin="round" stroke-miterlimit="10" stroke-dasharray="none" stroke-opacity="" data-original="#000000" class=""></path><path d="M0 0c-3.905-3.904-10.237-3.904-14.143 0-3.905 3.905-3.905 10.237 0 14.143 3.906 3.905 10.238 3.905 14.143 0C3.905 10.237 3.905 3.905 0 0" style="fill-opacity:1;fill-rule:nonzero;stroke:none" transform="translate(325.432 396.142)" fill="#000000" data-original="#000000"></path><path d="m0 0 42.427-42.427" style="stroke-width:20;stroke-linecap:round;stroke-linejoin:round;stroke-miterlimit:10;stroke-dasharray:none;stroke-opacity:1" transform="translate(86.294 425.706)" fill="none" stroke="#000000" stroke-width="20" stroke-linecap="round" stroke-linejoin="round" stroke-miterlimit="10" stroke-dasharray="none" stroke-opacity="" data-original="#000000" class=""></path><path d="M0 0h60" style="stroke-width:20;stroke-linecap:round;stroke-linejoin:round;stroke-miterlimit:10;stroke-dasharray:none;stroke-opacity:1" transform="translate(38 334)" fill="none" stroke="#000000" stroke-width="20" stroke-linecap="round" stroke-linejoin="round" stroke-miterlimit="10" stroke-dasharray="none" stroke-opacity="" data-original="#000000" class=""></path><path d="M0 0v-60" style="stroke-width:20;stroke-linecap:round;stroke-linejoin:round;stroke-miterlimit:10;stroke-dasharray:none;stroke-opacity:1" transform="translate(178 477)" fill="none" stroke="#000000" stroke-width="20" stroke-linecap="round" stroke-linejoin="round" stroke-miterlimit="10" stroke-dasharray="none" stroke-opacity="" data-original="#000000" class=""></path><path d="m0 0 42.427-42.427" style="stroke-width:20;stroke-linecap:round;stroke-linejoin:round;stroke-miterlimit:10;stroke-dasharray:none;stroke-opacity:1" transform="translate(383.28 128.72)" fill="none" stroke="#000000" stroke-width="20" stroke-linecap="round" stroke-linejoin="round" stroke-miterlimit="10" stroke-dasharray="none" stroke-opacity="" data-original="#000000" class=""></path><path d="M0 0v-60" style="stroke-width:20;stroke-linecap:round;stroke-linejoin:round;stroke-miterlimit:10;stroke-dasharray:none;stroke-opacity:1" transform="translate(333 95)" fill="none" stroke="#000000" stroke-width="20" stroke-linecap="round" stroke-linejoin="round" stroke-miterlimit="10" stroke-dasharray="none" stroke-opacity="" data-original="#000000" class=""></path><path d="M0 0h60" style="stroke-width:20;stroke-linecap:round;stroke-linejoin:round;stroke-miterlimit:10;stroke-dasharray:none;stroke-opacity:1" transform="translate(417 179)" fill="none" stroke="#000000" stroke-width="20" stroke-linecap="round" stroke-linejoin="round" stroke-miterlimit="10" stroke-dasharray="none" stroke-opacity="" data-original="#000000" class=""></path></g></g></svg>