<svg xmlns="http://www.w3.org/2000/svg" xmlns:xlink="http://www.w3.org/1999/xlink" xmlns:svgjs="http://svgjs.com/svgjs" version="1.1" width="512" height="512" x="0" y="0" viewBox="0 0 682.667 682.667" style="enable-background:new 0 0 512 512" xml:space="preserve" class=""><g><defs><clipPath id="a" clipPathUnits="userSpaceOnUse"><path d="M0 512h512V0H0Z" fill="#000000" data-original="#000000"/></clipPath></defs><g clip-path="url(#a)" transform="matrix(1.33333 0 0 -1.33333 0 682.667)"><path d="M0 0h-385.748c-16.568 0-30 13.431-30 30v41.732l445.748 81V30C30 13.431 16.568 0 0 0" style="fill-opacity:1;fill-rule:nonzero;stroke:none" transform="translate(448.874 7.485)" fill="#cecdcc" data-original="#cdc0ba" class=""/><path d="M0 0h-304.084c-16.596 0-30.05 13.454-30.05 30.05v372.625c0 16.597 13.454 30.051 30.05 30.051H81.563c16.597 0 30.051-13.454 30.051-30.051V111.614c0-7.97-18.166-15.614-23.802-21.249L21.249 23.801C15.613 18.166 7.97 0 0 0" style="fill-opacity:1;fill-rule:nonzero;stroke:none" transform="translate(367.26 37.485)" fill="#e6d2c1" data-original="#f9f3f1" class=""/><path d="M0 0h23.801c13.598 0 24.621 11.023 24.621 24.622v50.063c0 13.598 11.024 24.622 24.622 24.622h50.063c13.599 0 24.622 11.023 24.622 24.621v31.187-43.361a30.05 30.05 0 0 0-8.802-21.249L57.224 8.801A30.053 30.053 0 0 0 35.975 0Z" style="fill-opacity:1;fill-rule:nonzero;stroke:none" transform="translate(331.145 37.485)" fill="#af9178" data-original="#efe2dd" class=""/><path d="M0 0v-77.18h-445.74V0c0 16.56 13.43 30 30 30H-30C-13.43 30 0 16.56 0 0" style="fill-opacity:1;fill-rule:nonzero;stroke:none" transform="translate(478.87 440.215)" fill="#99dede" data-original="#fece85" class=""/><path d="M0 0c-5.722 0-10.58.003-14.72.003-12.58 0-22.81 10.23-22.81 22.8v29.56h15v-29.56c0-4.3 3.5-7.8 7.81-7.8C-10.58 15.003 4.14 0 0 0" style="fill-opacity:1;fill-rule:nonzero;stroke:none" transform="translate(118.05 417.852)" fill="#38abab" data-original="#fdb541" class=""/><path d="m0 0-14.727.003c-12.57 0-22.8 10.23-22.8 22.8v29.56h15v-29.56c0-4.3 3.5-7.8 7.8-7.8C-10.577 15.003 0 4.14 0 0" style="fill-opacity:1;fill-rule:nonzero;stroke:none" transform="translate(390.507 417.852)" fill="#38abab" data-original="#fdb541" class=""/><path d="M0 0v18.967c0 4.305-3.502 7.807-7.807 7.807h-3.443c-4.305 0-7.807-3.502-7.807-7.807v-48.519c0-4.305 3.502-7.807 7.807-7.807a7.5 7.5 0 0 0 0-15c-12.576 0-22.807 10.231-22.807 22.807v48.519c0 12.576 10.231 22.807 22.807 22.807h3.443C4.769 41.774 15 31.543 15 18.967V0Z" style="fill-opacity:1;fill-rule:nonzero;stroke:none" transform="translate(129.3 470.21)" fill="#554e56" data-original="#554e56"/><path d="M0 0v18.967c0 4.305-3.502 7.807-7.807 7.807h-3.443c-4.305 0-7.807-3.502-7.807-7.807v-48.519c0-4.305 3.502-7.807 7.807-7.807a7.5 7.5 0 0 0 0-15c-12.576 0-22.807 10.231-22.807 22.807v48.519c0 12.576 10.231 22.807 22.807 22.807h3.443C4.769 41.774 15 31.543 15 18.967V0Z" style="fill-opacity:1;fill-rule:nonzero;stroke:none" transform="translate(401.757 470.21)" fill="#554e56" data-original="#554e56"/><path d="M0 0h-35.714a7.143 7.143 0 0 0-7.143 7.143v35.714A7.143 7.143 0 0 0-35.714 50H0a7.143 7.143 0 0 0 7.143-7.143V7.143A7.143 7.143 0 0 0 0 0" style="fill-opacity:1;fill-rule:nonzero;stroke:none" transform="translate(120.983 268.046)" fill="#fff6f0" data-original="#fedba6" class=""/><path d="M0 0h-35.714a7.143 7.143 0 0 0-7.143 7.143v35.714A7.143 7.143 0 0 0-35.714 50H0a7.143 7.143 0 0 0 7.143-7.143V7.143A7.143 7.143 0 0 0 0 0" style="fill-opacity:1;fill-rule:nonzero;stroke:none" transform="translate(222.899 268.046)" fill="#fff6f0" data-original="#fedba6" class=""/><path d="M0 0h-35.714a7.143 7.143 0 0 0-7.143 7.143v35.714A7.143 7.143 0 0 0-35.714 50H0a7.143 7.143 0 0 0 7.143-7.143V7.143A7.143 7.143 0 0 0 0 0" style="fill-opacity:1;fill-rule:nonzero;stroke:none" transform="translate(324.815 268.046)" fill="#fff6f0" data-original="#fedba6" class=""/><path d="M0 0h-35.714a7.143 7.143 0 0 0-7.143 7.143v35.714A7.143 7.143 0 0 0-35.714 50H0a7.143 7.143 0 0 0 7.143-7.143V7.143A7.143 7.143 0 0 0 0 0" style="fill-opacity:1;fill-rule:nonzero;stroke:none" transform="translate(426.731 268.046)" fill="#fff6f0" data-original="#fedba6" class=""/><path d="M0 0h-35.714a7.143 7.143 0 0 0-7.143 7.143v35.714A7.143 7.143 0 0 0-35.714 50H0a7.143 7.143 0 0 0 7.143-7.143V7.143A7.143 7.143 0 0 0 0 0" style="fill-opacity:1;fill-rule:nonzero;stroke:none" transform="translate(120.983 175.273)" fill="#fff6f0" data-original="#fedba6" class=""/><path d="M0 0h-35.714a7.143 7.143 0 0 0-7.143 7.143v35.714A7.143 7.143 0 0 0-35.714 50H0a7.143 7.143 0 0 0 7.143-7.143V7.143A7.143 7.143 0 0 0 0 0" style="fill-opacity:1;fill-rule:nonzero;stroke:none" transform="translate(222.899 175.273)" fill="#fff6f0" data-original="#fedba6" class=""/><path d="M0 0h-35.714a7.143 7.143 0 0 0-7.143 7.143v35.714A7.143 7.143 0 0 0-35.714 50H0a7.143 7.143 0 0 0 7.143-7.143V7.143A7.143 7.143 0 0 0 0 0" style="fill-opacity:1;fill-rule:nonzero;stroke:none" transform="translate(324.815 175.273)" fill="#fff6f0" data-original="#fedba6" class=""/><path d="M0 0h-35.714a7.143 7.143 0 0 0-7.143 7.143v35.714A7.143 7.143 0 0 0-35.714 50H0a7.143 7.143 0 0 0 7.143-7.143V7.143A7.143 7.143 0 0 0 0 0" style="fill-opacity:1;fill-rule:nonzero;stroke:none" transform="translate(426.731 173.046)" fill="#fff6f0" data-original="#fedba6" class=""/><path d="M0 0h-35.714a7.143 7.143 0 0 0-7.143 7.143v35.714A7.143 7.143 0 0 0-35.714 50H0a7.143 7.143 0 0 0 7.143-7.143V7.143A7.143 7.143 0 0 0 0 0" style="fill-opacity:1;fill-rule:nonzero;stroke:none" transform="translate(120.983 82.5)" fill="#fff6f0" data-original="#fedba6" class=""/><path d="M0 0h-35.714a7.143 7.143 0 0 0-7.143 7.143v35.714A7.143 7.143 0 0 0-35.714 50H0a7.143 7.143 0 0 0 7.143-7.143V7.143A7.143 7.143 0 0 0 0 0" style="fill-opacity:1;fill-rule:nonzero;stroke:none" transform="translate(222.899 82.5)" fill="#fff6f0" data-original="#fedba6" class=""/><path d="M0 0h-35.714a7.143 7.143 0 0 0-7.143 7.143v35.714A7.143 7.143 0 0 0-35.714 50H0a7.143 7.143 0 0 0 7.143-7.143V7.143A7.143 7.143 0 0 0 0 0" style="fill-opacity:1;fill-rule:nonzero;stroke:none" transform="translate(324.815 82.5)" fill="#fff6f0" data-original="#fedba6" class=""/><path d="M0 0v-122.733c0-16.568-13.432-30-30-30h-385.748c-16.568 0-30 13.432-30 30V-81" style="stroke-width:15;stroke-linecap:round;stroke-linejoin:round;stroke-miterlimit:10;stroke-dasharray:none;stroke-opacity:1" transform="translate(478.874 160.233)" fill="none" stroke="#000000" stroke-width="15" stroke-linecap="round" stroke-linejoin="round" stroke-miterlimit="10" stroke-dasharray="none" stroke-opacity="" data-original="#000000" class=""/><path d="M0 0h-304.084c-16.596 0-30.05 13.454-30.05 30.05v372.626c0 16.596 13.454 30.05 30.05 30.05H81.563c16.597 0 30.051-13.454 30.051-30.05V111.614c0-7.97-3.166-15.614-8.802-21.249L21.249 8.802A30.05 30.05 0 0 0 0 0Z" style="stroke-width:15;stroke-linecap:round;stroke-linejoin:round;stroke-miterlimit:10;stroke-dasharray:none;stroke-opacity:1" transform="translate(367.26 37.5)" fill="none" stroke="#000000" stroke-width="15" stroke-linecap="round" stroke-linejoin="round" stroke-miterlimit="10" stroke-dasharray="none" stroke-opacity="" data-original="#000000" class=""/><path d="M0 0h23.801c13.598 0 24.621 11.023 24.621 24.622v50.063c0 13.598 11.024 24.622 24.622 24.622h50.063c13.599 0 24.622 11.023 24.622 24.621v31.187" style="stroke-width:15;stroke-linecap:round;stroke-linejoin:round;stroke-miterlimit:10;stroke-dasharray:none;stroke-opacity:1" transform="translate(331.145 37.5)" fill="none" stroke="#000000" stroke-width="15" stroke-linecap="round" stroke-linejoin="round" stroke-miterlimit="10" stroke-dasharray="none" stroke-opacity="" data-original="#000000" class=""/><path d="M0 0h-88.674" style="stroke-width:15;stroke-linecap:round;stroke-linejoin:round;stroke-miterlimit:10;stroke-dasharray:none;stroke-opacity:1" transform="translate(121.8 363.046)" fill="none" stroke="#000000" stroke-width="15" stroke-linecap="round" stroke-linejoin="round" stroke-miterlimit="10" stroke-dasharray="none" stroke-opacity="" data-original="#000000" class=""/><path d="M0 0h-327.074" style="stroke-width:15;stroke-linecap:round;stroke-linejoin:round;stroke-miterlimit:10;stroke-dasharray:none;stroke-opacity:1" transform="translate(478.874 363.046)" fill="none" stroke="#000000" stroke-width="15" stroke-linecap="round" stroke-linejoin="round" stroke-miterlimit="10" stroke-dasharray="none" stroke-opacity="" data-original="#000000" class=""/><path d="M0 0c-8.454 0-15.307 6.853-15.307 15.307v48.519c0 8.454 6.853 15.307 15.307 15.307h3.443c8.454 0 15.307-6.853 15.307-15.307V44.859" style="stroke-width:15;stroke-linecap:round;stroke-linejoin:round;stroke-miterlimit:10;stroke-dasharray:none;stroke-opacity:1" transform="translate(118.05 425.367)" fill="none" stroke="#000000" stroke-width="15" stroke-linecap="round" stroke-linejoin="round" stroke-miterlimit="10" stroke-dasharray="none" stroke-opacity="" data-original="#000000" class=""/><path d="M0 0c-8.454 0-15.307 6.853-15.307 15.307v48.519c0 8.454 6.853 15.307 15.307 15.307h3.443c8.454 0 15.307-6.853 15.307-15.307V44.859" style="stroke-width:15;stroke-linecap:round;stroke-linejoin:round;stroke-miterlimit:10;stroke-dasharray:none;stroke-opacity:1" transform="translate(390.507 425.367)" fill="none" stroke="#000000" stroke-width="15" stroke-linecap="round" stroke-linejoin="round" stroke-miterlimit="10" stroke-dasharray="none" stroke-opacity="" data-original="#000000" class=""/><path d="M0 0h-35.714a7.143 7.143 0 0 0-7.143 7.143v35.714A7.143 7.143 0 0 0-35.714 50H0a7.143 7.143 0 0 0 7.143-7.143V7.143A7.143 7.143 0 0 0 0 0Z" style="stroke-width:15;stroke-linecap:round;stroke-linejoin:round;stroke-miterlimit:10;stroke-dasharray:none;stroke-opacity:1" transform="translate(120.983 268.046)" fill="none" stroke="#000000" stroke-width="15" stroke-linecap="round" stroke-linejoin="round" stroke-miterlimit="10" stroke-dasharray="none" stroke-opacity="" data-original="#000000" class=""/><path d="M0 0h-35.714a7.143 7.143 0 0 0-7.143 7.143v35.714A7.143 7.143 0 0 0-35.714 50H0a7.143 7.143 0 0 0 7.143-7.143V7.143A7.143 7.143 0 0 0 0 0Z" style="stroke-width:15;stroke-linecap:round;stroke-linejoin:round;stroke-miterlimit:10;stroke-dasharray:none;stroke-opacity:1" transform="translate(222.899 268.046)" fill="none" stroke="#000000" stroke-width="15" stroke-linecap="round" stroke-linejoin="round" stroke-miterlimit="10" stroke-dasharray="none" stroke-opacity="" data-original="#000000" class=""/><path d="M0 0h-35.714a7.143 7.143 0 0 0-7.143 7.143v35.714A7.143 7.143 0 0 0-35.714 50H0a7.143 7.143 0 0 0 7.143-7.143V7.143A7.143 7.143 0 0 0 0 0Z" style="stroke-width:15;stroke-linecap:round;stroke-linejoin:round;stroke-miterlimit:10;stroke-dasharray:none;stroke-opacity:1" transform="translate(324.815 268.046)" fill="none" stroke="#000000" stroke-width="15" stroke-linecap="round" stroke-linejoin="round" stroke-miterlimit="10" stroke-dasharray="none" stroke-opacity="" data-original="#000000" class=""/><path d="M0 0h-35.714a7.143 7.143 0 0 0-7.143 7.143v35.714A7.143 7.143 0 0 0-35.714 50H0a7.143 7.143 0 0 0 7.143-7.143V7.143A7.143 7.143 0 0 0 0 0Z" style="stroke-width:15;stroke-linecap:round;stroke-linejoin:round;stroke-miterlimit:10;stroke-dasharray:none;stroke-opacity:1" transform="translate(426.731 268.046)" fill="none" stroke="#000000" stroke-width="15" stroke-linecap="round" stroke-linejoin="round" stroke-miterlimit="10" stroke-dasharray="none" stroke-opacity="" data-original="#000000" class=""/><path d="M0 0h-35.714a7.143 7.143 0 0 0-7.143 7.143v35.714A7.143 7.143 0 0 0-35.714 50H0a7.143 7.143 0 0 0 7.143-7.143V7.143A7.143 7.143 0 0 0 0 0Z" style="stroke-width:15;stroke-linecap:round;stroke-linejoin:round;stroke-miterlimit:10;stroke-dasharray:none;stroke-opacity:1" transform="translate(120.983 175.273)" fill="none" stroke="#000000" stroke-width="15" stroke-linecap="round" stroke-linejoin="round" stroke-miterlimit="10" stroke-dasharray="none" stroke-opacity="" data-original="#000000" class=""/><path d="M0 0h-35.714a7.143 7.143 0 0 0-7.143 7.143v35.714A7.143 7.143 0 0 0-35.714 50H0a7.143 7.143 0 0 0 7.143-7.143V7.143A7.143 7.143 0 0 0 0 0Z" style="stroke-width:15;stroke-linecap:round;stroke-linejoin:round;stroke-miterlimit:10;stroke-dasharray:none;stroke-opacity:1" transform="translate(222.899 175.273)" fill="none" stroke="#000000" stroke-width="15" stroke-linecap="round" stroke-linejoin="round" stroke-miterlimit="10" stroke-dasharray="none" stroke-opacity="" data-original="#000000" class=""/><path d="M0 0h-35.714a7.143 7.143 0 0 0-7.143 7.143v35.714A7.143 7.143 0 0 0-35.714 50H0a7.143 7.143 0 0 0 7.143-7.143V7.143A7.143 7.143 0 0 0 0 0Z" style="stroke-width:15;stroke-linecap:round;stroke-linejoin:round;stroke-miterlimit:10;stroke-dasharray:none;stroke-opacity:1" transform="translate(324.815 175.273)" fill="none" stroke="#000000" stroke-width="15" stroke-linecap="round" stroke-linejoin="round" stroke-miterlimit="10" stroke-dasharray="none" stroke-opacity="" data-original="#000000" class=""/><path d="M0 0h-35.714a7.143 7.143 0 0 0-7.143 7.143v35.714A7.143 7.143 0 0 0-35.714 50H0a7.143 7.143 0 0 0 7.143-7.143V7.143A7.143 7.143 0 0 0 0 0Z" style="stroke-width:15;stroke-linecap:round;stroke-linejoin:round;stroke-miterlimit:10;stroke-dasharray:none;stroke-opacity:1" transform="translate(426.731 173.046)" fill="none" stroke="#000000" stroke-width="15" stroke-linecap="round" stroke-linejoin="round" stroke-miterlimit="10" stroke-dasharray="none" stroke-opacity="" data-original="#000000" class=""/><path d="M0 0h-35.714a7.143 7.143 0 0 0-7.143 7.143v35.714A7.143 7.143 0 0 0-35.714 50H0a7.143 7.143 0 0 0 7.143-7.143V7.143A7.143 7.143 0 0 0 0 0Z" style="stroke-width:15;stroke-linecap:round;stroke-linejoin:round;stroke-miterlimit:10;stroke-dasharray:none;stroke-opacity:1" transform="translate(120.983 82.5)" fill="none" stroke="#000000" stroke-width="15" stroke-linecap="round" stroke-linejoin="round" stroke-miterlimit="10" stroke-dasharray="none" stroke-opacity="" data-original="#000000" class=""/><path d="M0 0h-35.714a7.143 7.143 0 0 0-7.143 7.143v35.714A7.143 7.143 0 0 0-35.714 50H0a7.143 7.143 0 0 0 7.143-7.143V7.143A7.143 7.143 0 0 0 0 0Z" style="stroke-width:15;stroke-linecap:round;stroke-linejoin:round;stroke-miterlimit:10;stroke-dasharray:none;stroke-opacity:1" transform="translate(222.899 82.5)" fill="none" stroke="#000000" stroke-width="15" stroke-linecap="round" stroke-linejoin="round" stroke-miterlimit="10" stroke-dasharray="none" stroke-opacity="" data-original="#000000" class=""/><path d="M0 0v10.299a7.142 7.142 0 0 0 7.143 7.143h35.714A7.142 7.142 0 0 0 50 10.299v-35.714a7.143 7.143 0 0 0-7.143-7.143H7.143A7.143 7.143 0 0 0 0-25.415" style="stroke-width:15;stroke-linecap:round;stroke-linejoin:round;stroke-miterlimit:10;stroke-dasharray:none;stroke-opacity:1" transform="translate(281.958 115.058)" fill="none" stroke="#000000" stroke-width="15" stroke-linecap="round" stroke-linejoin="round" stroke-miterlimit="10" stroke-dasharray="none" stroke-opacity="" data-original="#000000" class=""/></g></g></svg>